<svg width="69" height="56" viewBox="0 0 69 56" fill="none" xmlns="http://www.w3.org/2000/svg">
<path d="M4.5387 21.2333C4.5387 15.0261 4.5387 11.9225 6.00464 9.5516C7.29412 7.46615 9.35169 5.77061 11.8824 4.70801C14.7595 3.5 18.5258 3.5 26.0584 3.5H42.4815C50.0141 3.5 53.7804 3.5 56.6573 4.70801C59.1881 5.77061 61.2457 7.46615 62.5352 9.5516C64.0011 11.9225 64.0011 15.0261 64.0011 21.2333V34.7667C64.0011 40.974 64.0011 44.0776 62.5352 46.4483C61.2457 48.5338 59.1881 50.2294 56.6573 51.292C53.7804 52.5 50.0141 52.5 42.4815 52.5H26.0584C18.5258 52.5 14.7595 52.5 11.8824 51.292C9.35169 50.2294 7.29412 48.5338 6.00464 46.4483C4.5387 44.0776 4.5387 40.974 4.5387 34.7667V21.2333Z" fill="white"/>
<path d="M4.5387 21.2333C4.5387 15.0261 4.5387 11.9225 6.00464 9.5516C7.29412 7.46615 9.35169 5.77061 11.8824 4.70801C14.7595 3.5 18.5258 3.5 26.0584 3.5H42.4815C50.0141 3.5 53.7804 3.5 56.6573 4.70801C59.1881 5.77061 61.2457 7.46615 62.5352 9.5516C64.0011 11.9225 64.0011 15.0261 64.0011 21.2333V34.7667C64.0011 40.974 64.0011 44.0776 62.5352 46.4483C61.2457 48.5338 59.1881 50.2294 56.6573 51.292C53.7804 52.5 50.0141 52.5 42.4815 52.5H26.0584C18.5258 52.5 14.7595 52.5 11.8824 51.292C9.35169 50.2294 7.29412 48.5338 6.00464 46.4483C4.5387 44.0776 4.5387 40.974 4.5387 34.7667V21.2333Z" fill="url(#paint0_radial_549_232)"/>
<path d="M4.5387 21.2333C4.5387 15.0261 4.5387 11.9225 6.00464 9.5516C7.29412 7.46615 9.35169 5.77061 11.8824 4.70801C14.7595 3.5 18.5258 3.5 26.0584 3.5H42.4815C50.0141 3.5 53.7804 3.5 56.6573 4.70801C59.1881 5.77061 61.2457 7.46615 62.5352 9.5516C64.0011 11.9225 64.0011 15.0261 64.0011 21.2333V34.7667C64.0011 40.974 64.0011 44.0776 62.5352 46.4483C61.2457 48.5338 59.1881 50.2294 56.6573 51.292C53.7804 52.5 50.0141 52.5 42.4815 52.5H26.0584C18.5258 52.5 14.7595 52.5 11.8824 51.292C9.35169 50.2294 7.29412 48.5338 6.00464 46.4483C4.5387 44.0776 4.5387 40.974 4.5387 34.7667V21.2333Z" fill="url(#paint1_radial_549_232)"/>
<path d="M4.5387 21.2333C4.5387 15.0261 4.5387 11.9225 6.00464 9.5516C7.29412 7.46615 9.35169 5.77061 11.8824 4.70801C14.7595 3.5 18.5258 3.5 26.0584 3.5H42.4815C50.0141 3.5 53.7804 3.5 56.6573 4.70801C59.1881 5.77061 61.2457 7.46615 62.5352 9.5516C64.0011 11.9225 64.0011 15.0261 64.0011 21.2333V34.7667C64.0011 40.974 64.0011 44.0776 62.5352 46.4483C61.2457 48.5338 59.1881 50.2294 56.6573 51.292C53.7804 52.5 50.0141 52.5 42.4815 52.5H26.0584C18.5258 52.5 14.7595 52.5 11.8824 51.292C9.35169 50.2294 7.29412 48.5338 6.00464 46.4483C4.5387 44.0776 4.5387 40.974 4.5387 34.7667V21.2333Z" fill="url(#paint2_radial_549_232)"/>
<path d="M4.5387 21.2333C4.5387 15.0261 4.5387 11.9225 6.00464 9.5516C7.29412 7.46615 9.35169 5.77061 11.8824 4.70801C14.7595 3.5 18.5258 3.5 26.0584 3.5H42.4815C50.0141 3.5 53.7804 3.5 56.6573 4.70801C59.1881 5.77061 61.2457 7.46615 62.5352 9.5516C64.0011 11.9225 64.0011 15.0261 64.0011 21.2333V34.7667C64.0011 40.974 64.0011 44.0776 62.5352 46.4483C61.2457 48.5338 59.1881 50.2294 56.6573 51.292C53.7804 52.5 50.0141 52.5 42.4815 52.5H26.0584C18.5258 52.5 14.7595 52.5 11.8824 51.292C9.35169 50.2294 7.29412 48.5338 6.00464 46.4483C4.5387 44.0776 4.5387 40.974 4.5387 34.7667V21.2333Z" fill="url(#paint3_radial_549_232)"/>
<path d="M4.5387 21.2333C4.5387 15.0261 4.5387 11.9225 6.00464 9.5516C7.29412 7.46615 9.35169 5.77061 11.8824 4.70801C14.7595 3.5 18.5258 3.5 26.0584 3.5H42.4815C50.0141 3.5 53.7804 3.5 56.6573 4.70801C59.1881 5.77061 61.2457 7.46615 62.5352 9.5516C64.0011 11.9225 64.0011 15.0261 64.0011 21.2333V34.7667C64.0011 40.974 64.0011 44.0776 62.5352 46.4483C61.2457 48.5338 59.1881 50.2294 56.6573 51.292C53.7804 52.5 50.0141 52.5 42.4815 52.5H26.0584C18.5258 52.5 14.7595 52.5 11.8824 51.292C9.35169 50.2294 7.29412 48.5338 6.00464 46.4483C4.5387 44.0776 4.5387 40.974 4.5387 34.7667V21.2333Z" fill="url(#paint4_radial_549_232)"/>
<path d="M4.5387 21.2333C4.5387 15.0261 4.5387 11.9225 6.00464 9.5516C7.29412 7.46615 9.35169 5.77061 11.8824 4.70801C14.7595 3.5 18.5258 3.5 26.0584 3.5H42.4815C50.0141 3.5 53.7804 3.5 56.6573 4.70801C59.1881 5.77061 61.2457 7.46615 62.5352 9.5516C64.0011 11.9225 64.0011 15.0261 64.0011 21.2333V34.7667C64.0011 40.974 64.0011 44.0776 62.5352 46.4483C61.2457 48.5338 59.1881 50.2294 56.6573 51.292C53.7804 52.5 50.0141 52.5 42.4815 52.5H26.0584C18.5258 52.5 14.7595 52.5 11.8824 51.292C9.35169 50.2294 7.29412 48.5338 6.00464 46.4483C4.5387 44.0776 4.5387 40.974 4.5387 34.7667V21.2333Z" fill="url(#paint5_radial_549_232)"/>
<path d="M4.5387 21.2333C4.5387 15.0261 4.5387 11.9225 6.00464 9.5516C7.29412 7.46615 9.35169 5.77061 11.8824 4.70801C14.7595 3.5 18.5258 3.5 26.0584 3.5H42.4815C50.0141 3.5 53.7804 3.5 56.6573 4.70801C59.1881 5.77061 61.2457 7.46615 62.5352 9.5516C64.0011 11.9225 64.0011 15.0261 64.0011 21.2333V34.7667C64.0011 40.974 64.0011 44.0776 62.5352 46.4483C61.2457 48.5338 59.1881 50.2294 56.6573 51.292C53.7804 52.5 50.0141 52.5 42.4815 52.5H26.0584C18.5258 52.5 14.7595 52.5 11.8824 51.292C9.35169 50.2294 7.29412 48.5338 6.00464 46.4483C4.5387 44.0776 4.5387 40.974 4.5387 34.7667V21.2333Z" fill="url(#paint6_radial_549_232)"/>
<path d="M52.2579 18.2629C49.1113 15.3941 44.6765 13.7818 40.0681 13.8027C35.5588 13.8027 30.9753 15.436 28.027 18.0744C27.4818 18.0326 26.9367 17.9908 26.4164 17.9908C17.5714 17.9908 12.0959 24.2727 12.0959 30.0941C12.1207 33.2352 13.5577 36.2506 16.1096 38.554C18.7854 40.9621 22.5019 42.3233 26.4164 42.3233H40.0681C49.3343 42.3233 56.8663 35.8947 56.8663 28.0211C56.8166 24.3984 55.1814 20.9224 52.2579 18.2629ZM26.1439 40.2711C19.5783 40.2711 14.2762 35.769 14.2762 30.2198C14.2762 24.7125 19.5535 20.2313 26.0945 20.1895C28.9932 20.1895 32.0407 20.9852 33.9732 22.7233L38.9532 27.0369C39.7708 27.7489 39.746 28.8796 38.9035 29.5707C38.0613 30.2618 36.7234 30.2408 35.9058 29.5287L31.0496 25.2989C27.8783 22.9954 23.0965 23.2885 20.3711 25.969C19.1819 27.1207 18.5377 28.6075 18.5377 30.1361C18.5377 33.654 22.0807 36.6276 26.2677 36.6276H27.234C28.6216 38.2608 32.5113 40.2711 32.5113 40.2711H26.1439ZM50.474 36.6694C47.8229 39.0147 44.1562 40.3339 40.3157 40.3549C36.6737 40.3549 32.9573 38.9727 30.1082 36.5856L23.6168 31.0575C22.7992 30.3454 22.824 29.2147 23.6416 28.5237C24.0379 28.1885 24.5582 28.0211 25.1282 28.0211C25.698 28.0211 26.2431 28.2095 26.6394 28.5655L33.1059 34.0309C35.1625 35.769 37.7886 36.7532 40.3157 36.7532C43.0164 36.7532 45.593 35.8108 47.4512 34.1356C49.3591 32.4813 50.4244 30.2618 50.4244 27.9582C50.4244 23.2257 45.8657 19.3937 40.2663 19.3727C38.1356 19.3727 36.3764 19.7287 34.6422 20.7549C33.6602 19.925 31.545 19.1006 30.5788 18.933C33.2546 16.8181 36.5993 15.792 40.2663 15.792C48.2194 15.792 54.6364 21.2365 54.6611 27.9582C54.6611 31.204 53.1745 34.345 50.474 36.6694Z" fill="white"/>
<defs>
<radialGradient id="paint0_radial_549_232" cx="0" cy="0" r="1" gradientUnits="userSpaceOnUse" gradientTransform="translate(53.9668 45.3803) rotate(41.3373) scale(32.338 32.9228)">
<stop stop-color="#68E048"/>
<stop offset="1" stop-color="#5CE049" stop-opacity="0"/>
</radialGradient>
<radialGradient id="paint1_radial_549_232" cx="0" cy="0" r="1" gradientUnits="userSpaceOnUse" gradientTransform="translate(13.9536 45.171) rotate(142.812) scale(33.4322 33.2149)">
<stop stop-color="#308CFE"/>
<stop offset="1" stop-color="#2F8BFF" stop-opacity="0"/>
</radialGradient>
<radialGradient id="paint2_radial_549_232" cx="0" cy="0" r="1" gradientUnits="userSpaceOnUse" gradientTransform="translate(52.8519 30.9316) rotate(6.52332) scale(21.1969 18.4694)">
<stop stop-color="#FDD511"/>
<stop offset="1" stop-color="#FDD20D" stop-opacity="0"/>
</radialGradient>
<radialGradient id="paint3_radial_549_232" cx="0" cy="0" r="1" gradientUnits="userSpaceOnUse" gradientTransform="translate(14.6969 21.1944) rotate(-132.58) scale(28.012 29.5474)">
<stop stop-color="#F928C2"/>
<stop offset="1" stop-color="#F922BC" stop-opacity="0"/>
</radialGradient>
<radialGradient id="paint4_radial_549_232" cx="0" cy="0" r="1" gradientUnits="userSpaceOnUse" gradientTransform="translate(38.2341 11.6667) rotate(-58.718) scale(27.1975 30.4625)">
<stop stop-color="#F90700"/>
<stop offset="1" stop-color="#F90700" stop-opacity="0"/>
</radialGradient>
<radialGradient id="paint5_radial_549_232" cx="0" cy="0" r="1" gradientUnits="userSpaceOnUse" gradientTransform="translate(60.7802 10.6197) rotate(-61.2733) scale(16.2378 18.4046)">
<stop stop-color="#FB4200"/>
<stop offset="1" stop-color="#FB4300" stop-opacity="0"/>
</radialGradient>
<radialGradient id="paint6_radial_549_232" cx="0" cy="0" r="1" gradientUnits="userSpaceOnUse" gradientTransform="translate(10.7327 9.46795) rotate(-139.2) scale(15.3827 15.6113)">
<stop stop-color="#FE0D88"/>
<stop offset="1" stop-color="#FE0D88" stop-opacity="0"/>
</radialGradient>
</defs>
</svg>
