<?xml version="1.0" encoding="UTF-8" standalone="no"?>
<svg
   width="71"
   height="74"
   viewBox="0 0 71 74"
   fill="none"
   version="1.1"
   id="svg4"
   sodipodi:docname="Amazon.svg"
   inkscape:version="1.3.2 (091e20e, 2023-11-25, custom)"
   xmlns:inkscape="http://www.inkscape.org/namespaces/inkscape"
   xmlns:sodipodi="http://sodipodi.sourceforge.net/DTD/sodipodi-0.dtd"
   xmlns="http://www.w3.org/2000/svg"
   xmlns:svg="http://www.w3.org/2000/svg">
  <sodipodi:namedview
     id="namedview4"
     pagecolor="#505050"
     bordercolor="#eeeeee"
     borderopacity="1"
     inkscape:showpageshadow="0"
     inkscape:pageopacity="0"
     inkscape:pagecheckerboard="0"
     inkscape:deskcolor="#505050"
     inkscape:zoom="9.3513514"
     inkscape:cx="35.449422"
     inkscape:cy="37"
     inkscape:window-width="1500"
     inkscape:window-height="930"
     inkscape:window-x="-6"
     inkscape:window-y="-6"
     inkscape:window-maximized="1"
     inkscape:current-layer="g2" />
  <g
     clip-path="url(#clip0_588_96)"
     id="g3">
    <g
       clip-path="url(#clip1_588_96)"
       id="g2">
      <path
         fill-rule="evenodd"
         clip-rule="evenodd"
         d="M32.9497 46.9086C31.991 48.7306 30.347 49.9037 28.568 50.2994C28.2983 50.2994 27.8863 50.4278 27.4744 50.4278C24.467 50.4278 22.6881 48.2135 22.6881 44.9581C22.6881 40.7865 25.2872 38.836 28.568 37.9198C30.347 37.5311 32.4029 37.3992 34.4552 37.3992V38.9644C34.4552 41.9595 34.5901 44.3022 32.9497 46.9086ZM34.4552 31.4124C32.6763 31.5408 30.6204 31.6692 28.568 31.9261C25.4221 32.3217 22.2762 32.8423 19.6807 34.0154C14.6173 35.9693 11.1943 40.1375 11.1943 46.2561C11.1943 53.9469 16.3926 57.8514 22.9651 57.8514C25.1523 57.8514 26.9313 57.5876 28.568 57.2024C31.1744 56.418 33.358 54.9846 35.9571 52.3782C37.4627 54.3322 37.8782 55.2484 40.4737 57.3308C41.159 57.5876 41.8444 57.5876 42.3875 57.2024C44.0316 55.8974 46.9077 53.5513 48.4096 52.2498C49.0949 51.7292 48.9601 50.9449 48.5445 50.2994C47.0426 48.4738 45.5334 46.9086 45.5334 43.3929V31.6692C45.5334 26.7202 45.949 22.1598 42.1178 18.776C38.9718 16.0446 34.0433 15 30.2121 15H28.568C21.5945 15.3852 14.209 18.2519 12.5613 26.4599C12.2879 27.5045 13.1118 27.8932 13.6586 28.0216L21.3211 28.9344C22.1413 28.8025 22.5532 28.1501 22.6881 27.5045C23.3698 24.6378 25.834 23.2045 28.568 22.9407H29.1185C30.7625 22.9407 32.5414 23.5932 33.4965 24.8981C34.5901 26.4599 34.4552 28.5457 34.4552 30.3712V31.4124Z"
         fill="#343B45"
         id="path1"
         style="fill:#000000" />
      <path
         fill-rule="evenodd"
         clip-rule="evenodd"
         d="M62.1306 59.1841V59.1806C62.1015 58.5663 61.9666 58.0978 61.6968 57.7091L61.6677 57.6709L61.6349 57.6327C61.3615 57.3481 61.099 57.2405 60.8147 57.1225C59.9653 56.8102 58.7295 56.6436 57.2422 56.6401C56.1742 56.6401 54.9967 56.7373 53.812 56.9837L53.8083 56.9074L52.6163 57.2857L52.5944 57.2961L51.9201 57.5043V57.5321C51.129 57.8444 50.4109 58.2331 49.7438 58.6947C49.3282 58.9897 48.9855 59.3819 48.9673 59.9823C48.9564 60.3085 49.1314 60.6834 49.4193 60.9055C49.7073 61.1276 50.0427 61.204 50.338 61.204C50.4072 61.204 50.4728 61.2005 50.5312 61.1901L50.5895 61.1866L50.6332 61.1797C51.2165 61.0617 52.0659 60.9818 53.061 60.85C53.9141 60.7597 54.8181 60.6938 55.6018 60.6938C56.1559 60.6903 56.6553 60.7285 56.998 60.7979C57.1693 60.8326 57.2969 60.8743 57.3662 60.909C57.3917 60.9159 57.4099 60.9263 57.4209 60.9333C57.4355 60.9784 57.4573 61.0964 57.4537 61.2595C57.461 61.8842 57.1839 63.0434 56.8012 64.1748C56.4293 65.3062 55.9773 66.4411 55.6784 67.1942C55.6055 67.3677 55.5581 67.5586 55.5581 67.7668C55.5508 68.0688 55.682 68.4367 55.9591 68.6796C56.2288 68.9225 56.5788 69.0197 56.8704 69.0197H56.885C57.3224 69.0163 57.6943 68.8497 58.0151 68.6102C61.0407 66.0211 62.0942 61.8842 62.1379 59.5554L62.1306 59.1841ZM53.1595 62.7727C52.8496 62.7692 52.5325 62.8386 52.2372 62.9705C51.9055 63.0954 51.5665 63.2412 51.2457 63.3696L50.7754 63.557L50.163 63.7895V63.7965C43.5103 66.3647 36.5221 67.871 30.0553 68.0028C29.8184 68.0098 29.5778 68.0098 29.3481 68.0098C19.1776 68.0167 10.8808 63.5258 2.51111 59.1008C2.21949 58.955 1.91692 58.8787 1.6253 58.8787C1.24983 58.8787 0.86342 59.014 0.582729 59.2639C0.302038 59.5173 0.134352 59.8817 0.137998 60.253C0.134352 60.7354 0.407753 61.1797 0.790514 61.4677C8.64622 67.9612 17.2565 73.9931 28.8378 74C29.0638 74 29.2934 73.9931 29.5231 73.9896C36.8903 73.8334 45.2199 71.463 51.6867 67.5968L51.7268 67.5725C52.5726 67.0901 53.4183 66.5417 54.2166 65.9344C54.7124 65.5838 55.055 65.0355 55.055 64.4663C55.0332 63.4564 54.1328 62.7727 53.1595 62.7727Z"
         fill="#FF9A00"
         id="path2" />
    </g>
  </g>
  <defs
     id="defs4">
    <clipPath
       id="clip0_588_96">
      <rect
         width="69.9558"
         height="74"
         fill="white"
         transform="translate(0.137939)"
         id="rect3" />
    </clipPath>
    <clipPath
       id="clip1_588_96">
      <rect
         width="62"
         height="59"
         fill="white"
         transform="translate(0.137939 15)"
         id="rect4" />
    </clipPath>
  </defs>
</svg>
