<svg width="127" height="106" viewBox="0 0 127 106" fill="none" xmlns="http://www.w3.org/2000/svg">
<g clip-path="url(#clip0_548_191)">
<path d="M34.9734 44.7633L35.9307 45.3468C37.5955 46.4772 38.5528 47.7535 38.7609 49.2121C40.5505 48.9203 42.8396 49.1391 43.8385 49.7226L44.7542 50.1966L44.5877 50.4883C44.2964 51.0353 44.2131 51.1812 44.1715 51.2541C42.5483 53.989 39.3435 54.0254 37.8452 53.989C34.0578 61.9748 25.9835 66.387 15.079 66.387C10.0429 66.387 6.21385 65.0378 3.63339 62.3759C0.220534 58.8753 0.220534 54.3172 0.511875 52.8586L0.595116 52.5668H30.6865C32.2681 52.5668 33.4751 52.2022 34.0578 51.9105C33.4335 51.1082 33.2254 50.1966 33.1838 49.6861C33.0589 48.2275 33.4751 46.696 34.3075 45.602L34.9734 44.7633ZM61.0465 46.4565C61.3822 46.4565 61.6665 46.5513 61.8992 46.7408C62.132 46.9303 62.2483 47.1696 62.2483 47.4586V56.4774C62.2483 57.9806 61.6226 59.2525 60.3711 60.2931C59.1044 61.3466 57.5935 61.8733 55.8384 61.8733C54.068 61.8733 52.5571 61.3466 51.3057 60.2931C50.0542 59.2396 49.4285 57.9677 49.4285 56.4774C49.4285 54.9871 50.0542 53.7153 51.3057 52.6618C52.5571 51.6083 54.068 51.0816 55.8384 51.0816C57.3569 51.0816 58.6961 51.4766 59.856 52.2667V47.4586C59.856 47.1696 59.9686 46.9303 60.1937 46.7408C60.4188 46.5513 60.7031 46.4565 61.0465 46.4565ZM70.0208 51.0816C71.7759 51.0816 73.2868 51.6083 74.5535 52.6618C75.1793 53.1885 75.6466 53.7699 75.9557 54.4058C76.2647 55.0418 76.4231 55.7323 76.4307 56.4774C76.4307 57.9806 75.805 59.2525 74.5535 60.2931C73.2868 61.3466 71.7759 61.8733 70.0208 61.8733C68.2504 61.8733 66.7395 61.3466 65.4881 60.2931C64.2366 59.2396 63.6109 57.9677 63.6109 56.4774C63.6109 54.9871 64.2366 53.7153 65.4881 52.6618C66.7395 51.6083 68.2504 51.0816 70.0208 51.0816ZM84.1803 51.0816C85.7904 51.0816 87.183 51.5184 88.3582 52.392C88.6329 52.5976 88.7703 52.8513 88.7703 53.1532C88.7703 53.4423 88.6577 53.6832 88.4326 53.8759C88.2075 54.0686 87.9232 54.1649 87.5798 54.1649C87.2899 54.1649 87.0304 54.0878 86.8015 53.9337C86.4123 53.6575 86.0041 53.4487 85.5768 53.3074C85.1494 53.166 84.6839 53.0954 84.1803 53.0954C83.6233 53.0954 83.1005 53.1837 82.6122 53.3604C82.1238 53.537 81.6965 53.7779 81.3302 54.083C80.9639 54.3882 80.6758 54.7463 80.466 55.1574C80.2561 55.5685 80.1512 56.0085 80.1512 56.4774C80.1512 56.9464 80.2561 57.3864 80.466 57.7975C80.6758 58.2086 80.9639 58.5667 81.3302 58.8719C81.6965 59.177 82.1238 59.4179 82.6122 59.5945C83.1005 59.7712 83.6233 59.8595 84.1803 59.8595C84.6839 59.8595 85.1494 59.7905 85.5768 59.6523C86.0041 59.5142 86.4085 59.3071 86.7901 59.0309C87.0037 58.896 87.2555 58.8253 87.5455 58.8189C87.8889 58.8189 88.1732 58.9136 88.3983 59.1031C88.6234 59.2926 88.7359 59.5319 88.7359 59.821C88.7359 60.1036 88.61 60.3509 88.3582 60.5629C87.1754 61.4365 85.7828 61.8733 84.1803 61.8733C82.4099 61.8733 80.899 61.3466 79.6476 60.2931C78.3961 59.2396 77.7704 57.9677 77.7704 56.4774C77.7704 54.9871 78.3961 53.7153 79.6476 52.6618C80.899 51.6083 82.4099 51.0816 84.1803 51.0816ZM91.3232 46.4565C91.6514 46.4565 91.9318 46.5545 92.1646 46.7504C92.3973 46.9463 92.5137 47.1856 92.5137 47.4683V54.9839L99.3585 51.2357C99.5493 51.133 99.763 51.0816 99.9995 51.0816C100.167 51.0816 100.324 51.1073 100.469 51.1587C100.614 51.21 100.74 51.2823 100.847 51.3755C100.953 51.4686 101.039 51.5762 101.104 51.6982C101.169 51.8203 101.201 51.9488 101.201 52.0837C101.201 52.4434 101.049 52.71 100.744 52.8834L95.9475 55.5043L100.869 60.1678C101.091 60.3734 101.201 60.6079 101.201 60.8712C101.201 61.0061 101.169 61.1346 101.104 61.2567C101.039 61.3787 100.953 61.4863 100.847 61.5794C100.74 61.6726 100.614 61.7449 100.469 61.7962C100.324 61.8476 100.167 61.8733 99.9995 61.8733C99.679 61.8733 99.412 61.7866 99.1983 61.6132L93.9101 56.6123L92.5137 57.3832V60.8616C92.5137 61.1378 92.3973 61.3755 92.1646 61.5746C91.9318 61.7738 91.6514 61.8733 91.3232 61.8733C90.9875 61.8733 90.7032 61.7738 90.4705 61.5746C90.2378 61.3755 90.1214 61.1378 90.1214 60.8616V47.4683C90.1214 47.1856 90.2378 46.9463 90.4705 46.7504C90.7032 46.5545 90.9875 46.4565 91.3232 46.4565ZM108.905 51.0816C110.66 51.0816 112.171 51.6083 113.438 52.6618C114.064 53.1821 114.533 53.7618 114.846 54.401C115.159 55.0402 115.315 55.7323 115.315 56.4774C115.315 56.7665 115.199 57.0058 114.966 57.1953C114.733 57.3848 114.449 57.4795 114.113 57.4795H105.048C105.178 57.8328 105.368 58.1556 105.62 58.4479C105.872 58.7402 106.168 58.9907 106.507 59.1995C106.847 59.4082 107.221 59.5704 107.629 59.6861C108.037 59.8017 108.463 59.8595 108.905 59.8595C109.409 59.8595 109.87 59.7953 110.29 59.6668C110.71 59.5383 111.099 59.3456 111.458 59.0887C111.687 58.9281 111.95 58.8446 112.248 58.8381C112.591 58.8381 112.875 58.9329 113.1 59.1224C113.325 59.3119 113.438 59.5512 113.438 59.8402C113.438 60.1229 113.323 60.3638 113.095 60.5629C111.912 61.4365 110.515 61.8733 108.905 61.8733C107.135 61.8733 105.624 61.3466 104.372 60.2931C103.121 59.2396 102.495 57.9677 102.495 56.4774C102.495 54.9871 103.121 53.7153 104.372 52.6618C105.624 51.6083 107.135 51.0816 108.905 51.0816ZM123.042 51.0816C123.378 51.0816 123.738 51.1008 124.123 51.1394C124.509 51.1779 124.864 51.247 125.188 51.3465C125.512 51.4461 125.781 51.5826 125.995 51.7561C126.209 51.9295 126.315 52.1543 126.315 52.4305C126.315 52.5719 126.283 52.7035 126.218 52.8256C126.153 52.9476 126.067 53.0552 125.961 53.1484C125.854 53.2415 125.728 53.3138 125.583 53.3652C125.438 53.4166 125.281 53.4423 125.114 53.4423C124.969 53.4423 124.801 53.4069 124.61 53.3363C124.129 53.1757 123.606 53.0954 123.042 53.0954C122.485 53.0954 121.962 53.1837 121.474 53.3604C120.985 53.537 120.56 53.7779 120.197 54.083C119.835 54.3882 119.549 54.7463 119.339 55.1574C119.129 55.5685 119.024 56.0085 119.024 56.4774V60.8712C119.024 61.1475 118.908 61.3835 118.675 61.5794C118.442 61.7754 118.162 61.8733 117.834 61.8733C117.498 61.8733 117.214 61.7754 116.981 61.5794C116.748 61.3835 116.632 61.1475 116.632 60.8712V52.0837C116.632 51.8074 116.748 51.5714 116.981 51.3755C117.214 51.1795 117.498 51.0816 117.834 51.0816C118.162 51.0816 118.442 51.1795 118.675 51.3755C118.908 51.5714 119.024 51.8074 119.024 52.0837V52.2764C119.596 51.8909 120.218 51.5955 120.89 51.3899C121.561 51.1843 122.279 51.0816 123.042 51.0816ZM55.8384 53.0954C55.2737 53.0954 54.7472 53.1853 54.2588 53.3652C53.7704 53.545 53.3469 53.7875 52.9883 54.0927C52.6296 54.3978 52.3454 54.7559 52.1355 55.167C51.9257 55.5781 51.8208 56.0149 51.8208 56.4774C51.8208 56.94 51.9257 57.3768 52.1355 57.7879C52.3454 58.199 52.6296 58.5571 52.9883 58.8622C53.3469 59.1674 53.7704 59.4098 54.2588 59.5897C54.7472 59.7696 55.2737 59.8595 55.8384 59.8595C56.3955 59.8595 56.9182 59.7696 57.4065 59.5897C57.8949 59.4098 58.3203 59.1658 58.6828 58.8574C59.0453 58.5491 59.3314 58.191 59.5413 57.7831C59.7511 57.3752 59.856 56.94 59.856 56.4774C59.856 56.0149 59.7511 55.5797 59.5413 55.1718C59.3314 54.7639 59.0453 54.4058 58.6828 54.0975C58.3203 53.7891 57.8949 53.545 57.4065 53.3652C56.9182 53.1853 56.3955 53.0954 55.8384 53.0954ZM70.0208 53.0954C69.4561 53.0954 68.9296 53.1853 68.4412 53.3652C67.9528 53.545 67.5293 53.7875 67.1707 54.0927C66.812 54.3978 66.5278 54.7559 66.3179 55.167C66.1081 55.5781 66.0032 56.0149 66.0032 56.4774C66.0032 56.94 66.1081 57.3768 66.3179 57.7879C66.5278 58.199 66.812 58.5571 67.1707 58.8622C67.5293 59.1674 67.9528 59.4098 68.4412 59.5897C68.9296 59.7696 69.4561 59.8595 70.0208 59.8595C70.5779 59.8595 71.1006 59.7696 71.5889 59.5897C72.0773 59.4098 72.5027 59.1658 72.8652 58.8574C73.2277 58.5491 73.5138 58.191 73.7237 57.7831C73.9335 57.3752 74.0384 56.94 74.0384 56.4774C74.0384 56.0149 73.9335 55.5797 73.7237 55.1718C73.5138 54.7639 73.2277 54.4058 72.8652 54.0975C72.5027 53.7891 72.0773 53.545 71.5889 53.3652C71.1006 53.1853 70.5779 53.0954 70.0208 53.0954ZM108.905 53.0954C108.47 53.0954 108.047 53.1532 107.635 53.2688C107.223 53.3845 106.845 53.5466 106.501 53.7554C106.158 53.9642 105.86 54.2147 105.609 54.507C105.357 54.7993 105.17 55.1221 105.048 55.4754H112.763C112.633 55.1221 112.44 54.7993 112.185 54.507C111.929 54.2147 111.631 53.9642 111.292 53.7554C110.952 53.5466 110.578 53.3845 110.17 53.2688C109.762 53.1532 109.34 53.0954 108.905 53.0954ZM8.41972 48.191V51.8375H3.84149V48.191H8.41972ZM13.8303 48.191V51.8375H9.25212V48.191H13.8303ZM19.241 48.191V51.8375H14.6628V48.191H19.241ZM24.6516 48.191V51.8375H20.0734V48.191H24.6516ZM30.0622 48.191V51.8375H25.484V48.191H30.0622ZM24.6516 43.8152V47.4617H20.0734V43.8152H24.6516ZM19.241 43.8152V47.4617H14.6628V43.8152H19.241ZM13.8303 43.8152V47.4617H9.25212V43.8152H13.8303ZM24.6516 39.4395V43.0859H20.0734V39.4395H24.6516Z" fill="#2396ED"/>
</g>
<defs>
<clipPath id="clip0_548_191">
<rect width="125.92" height="106" fill="white" transform="translate(0.39502)"/>
</clipPath>
</defs>
</svg>
