<svg width="92" height="73" viewBox="0 0 92 73" fill="none" xmlns="http://www.w3.org/2000/svg">
<path d="M48.8964 36.5C48.8964 30.619 54.6883 25.8557 61.8272 25.8557C68.9719 25.8557 74.7581 30.6144 74.7581 36.5C74.7581 42.3811 68.9719 47.1443 61.8272 47.1443C54.6939 47.1443 48.8964 42.3857 48.8964 36.5Z" fill="#1ABCFE"/>
<path d="M23.0346 57.7932C23.0346 51.9121 28.8265 47.1443 35.9655 47.1443H48.8964V57.7932C48.8964 63.6697 43.1045 68.4375 35.9655 68.4375C28.8265 68.4375 23.0346 63.6697 23.0346 57.7932Z" fill="#0ACF83"/>
<path d="M48.8964 4.5625V25.8557H61.8272C68.9719 25.8557 74.7581 21.0879 74.7581 15.2068C74.7581 9.33031 68.9719 4.5625 61.8272 4.5625H48.8964Z" fill="#FF7262"/>
<path d="M23.0346 15.2068C23.0346 21.0879 28.8265 25.8557 35.9655 25.8557H48.8964V4.5625H35.9655C28.8265 4.5625 23.0346 9.33031 23.0346 15.2068Z" fill="#F24E1E"/>
<path d="M23.0346 36.5C23.0346 42.3811 28.8265 47.1443 35.9655 47.1443H48.8964V25.8557H35.9655C28.8265 25.8557 23.0346 30.6144 23.0346 36.5Z" fill="#A259FF"/>
</svg>
