<svg width="106" height="88" viewBox="0 0 106 88" fill="none" xmlns="http://www.w3.org/2000/svg">
<path d="M95.4512 29.4979C93.4545 25.4579 89.407 21.0963 86.2298 19.7186C88.8158 23.9804 90.3117 28.2552 90.8836 31.4446C90.8836 31.4446 90.8836 31.4672 90.8931 31.509C85.6959 20.6189 76.8818 16.2268 69.684 6.66619C69.3187 6.1839 68.9554 5.7016 68.5996 5.18557C68.3986 4.89459 68.236 4.63092 68.0946 4.38174C67.7962 3.89832 67.5657 3.38742 67.408 2.85931C67.4093 2.83423 67.3991 2.80965 67.3801 2.79034C67.3611 2.77104 67.3342 2.75839 67.3047 2.75481C67.2765 2.7484 67.2466 2.7484 67.2184 2.75481C67.2109 2.75773 67.2037 2.76152 67.1974 2.76606C67.186 2.76606 67.1745 2.77734 67.163 2.78053L67.182 2.75963C55.6347 8.44423 51.7171 18.9598 51.3577 24.2216C46.7432 24.4868 42.3311 25.9148 38.6968 28.3195C38.3171 28.0495 37.92 27.7973 37.5071 27.5638C36.4597 24.4824 36.4155 21.2213 37.3789 18.1206C32.6563 19.9292 28.9837 22.7827 26.3134 25.3083H26.2924C24.4695 23.3679 24.5977 16.9679 24.701 15.632C24.6799 15.5484 23.3429 16.2155 23.1707 16.3168C21.5622 17.2813 20.0586 18.3637 18.6776 19.5514C17.106 20.8905 15.6703 22.3376 14.3853 23.8775C11.4289 27.3989 9.33222 31.3778 8.21651 35.5845C8.19549 35.6681 8.17634 35.7547 8.15532 35.8399C8.06924 36.1793 7.75746 37.8815 7.70198 38.2514V38.3367C7.29552 40.0958 7.04237 41.8776 6.94452 43.6675V43.8653C6.94452 65.2017 27.5261 82.5 52.9127 82.5C75.6502 82.5 94.5274 68.626 98.225 50.402C98.3014 49.9084 98.3644 49.4101 98.4333 48.9115C99.3478 42.2848 98.3319 35.3207 95.4512 29.4979ZM42.4669 59.7407C42.6813 59.826 42.884 59.9208 43.104 60.0042L43.1345 60.0204C42.9145 59.9305 42.6889 59.8372 42.4669 59.7407ZM90.897 31.5266V31.4897V31.5315V31.5266Z" fill="url(#paint0_linear_548_208)"/>
<path d="M95.4518 29.498C93.4551 25.458 89.4076 21.0965 86.2304 19.7188C88.8164 23.9806 90.3124 28.2553 90.8842 31.4447V31.5236C95.2226 41.4074 92.8583 51.4584 89.4535 57.5994C84.1855 67.1007 71.4332 76.8395 51.4692 76.3654C29.9178 75.8509 10.9181 62.3935 7.36983 44.7817C6.7233 42.0022 7.36983 40.5923 7.69499 38.3368C7.29906 40.0745 7.14793 40.5777 6.95091 43.6676V43.8654C6.95091 65.2021 27.5326 82.5001 52.9192 82.5001C75.6564 82.5001 94.534 68.6261 98.2312 50.4021C98.3077 49.9085 98.3709 49.4102 98.4398 48.9119C99.3485 42.2852 98.3326 35.3208 95.4518 29.498Z" fill="url(#paint1_radial_548_208)"/>
<path d="M95.4518 29.498C93.4551 25.458 89.4076 21.0965 86.2304 19.7188C88.8164 23.9806 90.3124 28.2553 90.8842 31.4447V31.5236C95.2226 41.4074 92.8583 51.4584 89.4535 57.5994C84.1855 67.1007 71.4332 76.8395 51.4692 76.3654C29.9178 75.8509 10.9181 62.3935 7.36983 44.7817C6.7233 42.0022 7.36983 40.5923 7.69499 38.3368C7.29906 40.0745 7.14793 40.5777 6.95091 43.6676V43.8654C6.95091 65.2021 27.5326 82.5001 52.9192 82.5001C75.6564 82.5001 94.534 68.6261 98.2312 50.4021C98.3077 49.9085 98.3709 49.4102 98.4398 48.9119C99.3485 42.2852 98.3326 35.3208 95.4518 29.498Z" fill="url(#paint2_radial_548_208)"/>
<path d="M73.1105 34.0377C73.2118 34.0971 73.3016 34.1565 73.3974 34.2162C72.2438 32.4944 70.8062 30.9184 69.1279 29.5346C54.8395 17.5256 65.3828 3.49421 67.1597 2.78042L67.1788 2.75952C55.6315 8.4441 51.7138 18.9597 51.3544 24.2215C51.8899 24.1909 52.4234 24.1523 52.9688 24.1523C61.5858 24.1523 69.0915 28.1359 73.1105 34.0377Z" fill="url(#paint3_radial_548_208)"/>
<path d="M52.9993 36.4372C52.9248 37.4016 48.8849 40.7135 47.4716 40.7135C34.3994 40.7135 32.2781 47.3594 32.2781 47.3594C32.8519 52.9573 37.4924 57.5663 43.1063 60.005C43.3627 60.1161 43.6208 60.2156 43.8717 60.3155C44.3209 60.4761 44.7725 60.637 45.222 60.78C47.1472 61.3509 49.1633 61.6759 51.2033 61.7447C74.1145 62.648 78.5562 38.72 62.02 31.7719C66.253 31.1528 70.6488 32.5853 73.1029 34.0337C69.0859 28.1322 61.5783 24.1484 52.9612 24.1484C52.4159 24.1484 51.8824 24.187 51.3466 24.2176C46.7357 24.4861 42.3278 25.9157 38.6975 28.3203C39.3995 28.8203 40.1915 29.4858 41.8573 30.8652C44.983 33.4568 52.9822 36.1237 52.9993 36.4372Z" fill="url(#paint4_radial_548_208)"/>
<path d="M52.9993 36.4372C52.9248 37.4016 48.8849 40.7135 47.4716 40.7135C34.3994 40.7135 32.2781 47.3594 32.2781 47.3594C32.8519 52.9573 37.4924 57.5663 43.1063 60.005C43.3627 60.1161 43.6208 60.2156 43.8717 60.3155C44.3209 60.4761 44.7725 60.637 45.222 60.78C47.1472 61.3509 49.1633 61.6759 51.2033 61.7447C74.1145 62.648 78.5562 38.72 62.02 31.7719C66.253 31.1528 70.6488 32.5853 73.1029 34.0337C69.0859 28.1322 61.5783 24.1484 52.9612 24.1484C52.4159 24.1484 51.8824 24.187 51.3466 24.2176C46.7357 24.4861 42.3278 25.9157 38.6975 28.3203C39.3995 28.8203 40.1915 29.4858 41.8573 30.8652C44.983 33.4568 52.9822 36.1237 52.9993 36.4372Z" fill="url(#paint5_radial_548_208)"/>
<path d="M36.5591 27.0352C36.9319 27.2377 37.2382 27.4081 37.5153 27.5642C36.4683 24.4827 36.424 21.2215 37.3874 18.1208C32.6646 19.9294 28.992 22.783 26.3218 25.3086C26.5379 25.3037 33.2058 25.2025 36.5591 27.0352Z" fill="url(#paint6_radial_548_208)"/>
<path d="M7.36984 44.7811C10.9181 62.3929 29.9178 75.8503 51.4846 76.3649C71.4482 76.839 84.1934 67.1001 89.4686 57.5989C92.8734 51.4562 95.2377 41.4069 90.8997 31.5231V31.4491C90.8997 31.4587 90.8997 31.4717 90.9092 31.5135C92.5389 40.4631 87.1237 49.133 78.6575 54.9963C78.649 55.0125 78.6408 55.0293 78.6329 55.046C62.1351 66.3364 46.3488 61.8575 43.1525 60.0296C42.9305 59.9397 42.7069 59.8464 42.4849 59.7499C32.8654 55.8917 28.8926 48.5206 29.7438 42.2041C21.624 42.2041 18.8542 36.4456 18.8542 36.4456C18.8542 36.4456 26.1458 32.0761 35.7557 35.8766C44.6561 39.3972 53.0147 36.4456 53.0147 36.4456C52.9976 36.1321 44.9984 33.4572 41.8786 30.8735C40.2124 29.4941 39.4205 28.8286 38.7184 28.3287C38.3387 28.0586 37.9416 27.8065 37.5288 27.573C37.2553 27.4124 36.9549 27.2516 36.5726 27.0442C33.2193 25.2115 26.5513 25.3128 26.3314 25.3176H26.3103C24.4874 23.3772 24.6156 16.9772 24.7189 15.6413C24.6978 15.5577 23.3608 16.2248 23.1886 16.3261C21.5801 17.2905 20.0765 18.373 18.6955 19.5607C17.1239 20.8998 15.6882 22.3469 14.4032 23.8868C11.4468 27.4082 9.35013 31.387 8.23443 35.5936C8.19809 35.6676 6.56264 41.6689 7.36984 44.7811Z" fill="url(#paint7_radial_548_208)"/>
<path d="M69.1289 29.5347C70.8072 30.9185 72.2444 32.4946 73.398 34.2163C73.6374 34.367 73.867 34.5282 74.0867 34.6984C84.5076 42.7625 79.0563 54.1783 78.6411 54.9981C87.1073 49.1351 92.5222 40.4652 90.8925 31.5153C85.6956 20.6189 76.8815 16.2268 69.6834 6.66619C69.3181 6.1839 68.9548 5.7016 68.599 5.18557C68.3983 4.89459 68.2356 4.63092 68.094 4.38174C67.7959 3.89832 67.5654 3.38742 67.4073 2.85931C67.4086 2.83423 67.3988 2.80965 67.3798 2.79034C67.3604 2.77104 67.3335 2.75839 67.304 2.75481C67.2758 2.7484 67.2463 2.7484 67.2181 2.75481C67.2102 2.75773 67.2033 2.76152 67.1968 2.76606C67.1853 2.76606 67.1738 2.77734 67.1624 2.78053C65.3837 3.49432 54.8402 17.5258 69.1289 29.5347Z" fill="url(#paint8_radial_548_208)"/>
<path d="M74.0834 34.6902C73.8637 34.5197 73.6338 34.3589 73.3948 34.2079C73.301 34.1485 73.2036 34.0891 73.1078 34.0294C70.6537 32.5826 66.2583 31.1485 62.0252 31.7675C78.5595 38.7157 74.1198 62.6437 51.2085 61.7403C49.1685 61.6716 47.1525 61.3465 45.227 60.7756C44.7777 60.6343 44.3262 60.4783 43.8766 60.3111C43.6166 60.2113 43.3582 60.1118 43.1116 60.001L43.1421 60.0169C46.3383 61.8498 62.1246 66.3284 78.6224 55.0334C78.6224 55.0334 78.6319 55.0125 78.6474 54.9833C79.0566 54.1781 84.5082 42.7623 74.0834 34.6902Z" fill="url(#paint9_radial_548_208)"/>
<path d="M32.2772 47.3591C32.2772 47.3591 34.3985 40.7131 47.4706 40.7131C48.8842 40.7131 52.9238 37.3983 52.9986 36.4369C53.073 35.4755 44.6397 39.3885 35.7393 35.8676C26.1295 32.0671 18.8379 36.4369 18.8379 36.4369C18.8379 36.4369 21.6077 42.1954 29.7275 42.1954C28.8763 48.5119 32.8491 55.8764 42.4685 59.7412C42.683 59.8262 42.8856 59.9211 43.1057 60.0047C37.4914 57.5709 32.8568 52.957 32.2772 47.3591Z" fill="url(#paint10_radial_548_208)"/>
<path d="M95.4512 29.4979C93.4545 25.4579 89.407 21.0963 86.2298 19.7186C88.8158 23.9804 90.3117 28.2552 90.8836 31.4446C90.8836 31.4446 90.8836 31.4672 90.8931 31.509C85.6959 20.6189 76.8818 16.2268 69.684 6.66619C69.3187 6.1839 68.9554 5.7016 68.5996 5.18557C68.3986 4.89459 68.236 4.63092 68.0946 4.38174C67.7962 3.89832 67.5657 3.38742 67.408 2.85931C67.4093 2.83423 67.3991 2.80965 67.3801 2.79034C67.3611 2.77104 67.3342 2.75839 67.3047 2.75481C67.2765 2.7484 67.2466 2.7484 67.2184 2.75481C67.2109 2.75773 67.2037 2.76152 67.1974 2.76606C67.186 2.76606 67.1745 2.77734 67.163 2.78053L67.182 2.75963C55.6347 8.44423 51.7171 18.9598 51.3577 24.2216C51.8932 24.191 52.427 24.1525 52.972 24.1525C61.5891 24.1525 69.0951 28.1361 73.1137 34.0379C70.6596 32.5908 66.2642 31.157 62.0311 31.776C78.565 38.7241 74.1257 62.6522 51.2141 61.7485C49.1744 61.6798 47.1581 61.3547 45.2329 60.7841C44.7833 60.6424 44.3321 60.4865 43.8825 60.3193C43.6224 60.2198 43.3641 60.12 43.1175 60.0091L43.1479 60.0251C42.9259 59.9351 42.7023 59.8419 42.4803 59.7454C42.6944 59.8306 42.8974 59.9255 43.1175 60.0091C37.4917 57.5704 32.8571 52.9565 32.2775 47.3586C32.2775 47.3586 34.3988 40.7127 47.4709 40.7127C48.8845 40.7127 52.9242 37.3978 52.9989 36.4364C52.9816 36.1229 44.9823 33.4477 41.8625 30.8644C40.1964 29.485 39.4044 28.8195 38.7027 28.3195C38.3226 28.0495 37.9255 27.7973 37.5127 27.5638C36.4656 24.4824 36.4214 21.2213 37.3848 18.1206C32.662 19.9292 28.9894 22.7827 26.3192 25.3083H26.2982C24.4753 23.3679 24.6034 16.9679 24.7067 15.632C24.6857 15.5484 23.3486 16.2155 23.1765 16.3168C21.5679 17.2813 20.0643 18.3637 18.6833 19.5514C17.1118 20.8905 15.676 22.3376 14.391 23.8775C11.4346 27.3989 9.33796 31.3778 8.22225 35.5845C8.20123 35.6681 8.18208 35.7547 8.16106 35.8399C8.07498 36.1793 7.68476 37.9057 7.63121 38.2756C7.63121 38.2481 7.63121 38.3045 7.63121 38.2756C7.27306 40.0595 7.04375 41.8602 6.94452 43.6675V43.8653C6.94452 65.2017 27.5261 82.5 52.9127 82.5C75.6502 82.5 94.5274 68.626 98.225 50.402C98.3014 49.9084 98.3644 49.4101 98.4333 48.9115C99.3478 42.2848 98.3319 35.3207 95.4512 29.4979Z" fill="url(#paint11_linear_548_208)"/>
<defs>
<linearGradient id="paint0_linear_548_208" x1="89.3667" y1="15.1047" x2="25.7934" y2="88.0833" gradientUnits="userSpaceOnUse">
<stop offset="0.05" stop-color="#FFF44F"/>
<stop offset="0.11" stop-color="#FFE847"/>
<stop offset="0.22" stop-color="#FFC830"/>
<stop offset="0.37" stop-color="#FF980E"/>
<stop offset="0.4" stop-color="#FF8B16"/>
<stop offset="0.46" stop-color="#FF672A"/>
<stop offset="0.53" stop-color="#FF3647"/>
<stop offset="0.7" stop-color="#E31587"/>
</linearGradient>
<radialGradient id="paint1_radial_548_208" cx="0" cy="0" r="1" gradientUnits="userSpaceOnUse" gradientTransform="translate(85.8402 11.6018) scale(95.8327 80.5442)">
<stop offset="0.13" stop-color="#FFBD4F"/>
<stop offset="0.19" stop-color="#FFAC31"/>
<stop offset="0.25" stop-color="#FF9D17"/>
<stop offset="0.28" stop-color="#FF980E"/>
<stop offset="0.4" stop-color="#FF563B"/>
<stop offset="0.47" stop-color="#FF3750"/>
<stop offset="0.71" stop-color="#F5156C"/>
<stop offset="0.78" stop-color="#EB0878"/>
<stop offset="0.86" stop-color="#E50080"/>
</radialGradient>
<radialGradient id="paint2_radial_548_208" cx="0" cy="0" r="1" gradientUnits="userSpaceOnUse" gradientTransform="translate(50.8229 44.5295) scale(95.8327 80.5442)">
<stop offset="0.3" stop-color="#960E18"/>
<stop offset="0.35" stop-color="#B11927" stop-opacity="0.74"/>
<stop offset="0.43" stop-color="#DB293D" stop-opacity="0.34"/>
<stop offset="0.5" stop-color="#F5334B" stop-opacity="0.09"/>
<stop offset="0.53" stop-color="#FF3750" stop-opacity="0"/>
</radialGradient>
<radialGradient id="paint3_radial_548_208" cx="0" cy="0" r="1" gradientUnits="userSpaceOnUse" gradientTransform="translate(62.3757 -6.67729) scale(69.4267 58.3506)">
<stop offset="0.13" stop-color="#FFF44F"/>
<stop offset="0.25" stop-color="#FFDC3E"/>
<stop offset="0.51" stop-color="#FF9D12"/>
<stop offset="0.53" stop-color="#FF980E"/>
</radialGradient>
<radialGradient id="paint4_radial_548_208" cx="0" cy="0" r="1" gradientUnits="userSpaceOnUse" gradientTransform="translate(40.2239 65.5691) scale(45.6298 38.3501)">
<stop offset="0.35" stop-color="#3A8EE6"/>
<stop offset="0.47" stop-color="#5C79F0"/>
<stop offset="0.67" stop-color="#9059FF"/>
<stop offset="1" stop-color="#C139E6"/>
</radialGradient>
<radialGradient id="paint5_radial_548_208" cx="0" cy="0" r="1" gradientUnits="userSpaceOnUse" gradientTransform="translate(52.1988 34.9577) rotate(-11.7473) scale(23.9692 24.0737)">
<stop offset="0.21" stop-color="#9059FF" stop-opacity="0"/>
<stop offset="0.28" stop-color="#8C4FF3" stop-opacity="0.06"/>
<stop offset="0.75" stop-color="#7716A8" stop-opacity="0.45"/>
<stop offset="0.97" stop-color="#6E008B" stop-opacity="0.6"/>
</radialGradient>
<radialGradient id="paint6_radial_548_208" cx="0" cy="0" r="1" gradientUnits="userSpaceOnUse" gradientTransform="translate(49.6099 8.30624) scale(32.8272 27.5902)">
<stop stop-color="#FFE226"/>
<stop offset="0.12" stop-color="#FFDB27"/>
<stop offset="0.3" stop-color="#FFC82A"/>
<stop offset="0.5" stop-color="#FFA930"/>
<stop offset="0.73" stop-color="#FF7E37"/>
<stop offset="0.79" stop-color="#FF7139"/>
</radialGradient>
<radialGradient id="paint7_radial_548_208" cx="0" cy="0" r="1" gradientUnits="userSpaceOnUse" gradientTransform="translate(75.4154 -9.19349) scale(140.057 117.713)">
<stop offset="0.11" stop-color="#FFF44F"/>
<stop offset="0.46" stop-color="#FF980E"/>
<stop offset="0.62" stop-color="#FF5634"/>
<stop offset="0.72" stop-color="#FF3647"/>
<stop offset="0.9" stop-color="#E31587"/>
</radialGradient>
<radialGradient id="paint8_radial_548_208" cx="0" cy="0" r="1" gradientUnits="userSpaceOnUse" gradientTransform="translate(61.8763 3.66779) rotate(83.1469) scale(85.9807 66.9315)">
<stop stop-color="#FFF44F"/>
<stop offset="0.06" stop-color="#FFE847"/>
<stop offset="0.17" stop-color="#FFC830"/>
<stop offset="0.3" stop-color="#FF980E"/>
<stop offset="0.36" stop-color="#FF8B16"/>
<stop offset="0.45" stop-color="#FF672A"/>
<stop offset="0.57" stop-color="#FF3647"/>
<stop offset="0.74" stop-color="#E31587"/>
</radialGradient>
<radialGradient id="paint9_radial_548_208" cx="0" cy="0" r="1" gradientUnits="userSpaceOnUse" gradientTransform="translate(48.8383 18.5239) scale(87.4373 73.4883)">
<stop offset="0.14" stop-color="#FFF44F"/>
<stop offset="0.48" stop-color="#FF980E"/>
<stop offset="0.59" stop-color="#FF5634"/>
<stop offset="0.66" stop-color="#FF3647"/>
<stop offset="0.9" stop-color="#E31587"/>
</radialGradient>
<radialGradient id="paint10_radial_548_208" cx="0" cy="0" r="1" gradientUnits="userSpaceOnUse" gradientTransform="translate(71.9198 22.8266) scale(95.7008 80.4331)">
<stop offset="0.09" stop-color="#FFF44F"/>
<stop offset="0.23" stop-color="#FFE141"/>
<stop offset="0.51" stop-color="#FFAF1E"/>
<stop offset="0.63" stop-color="#FF980E"/>
</radialGradient>
<linearGradient id="paint11_linear_548_208" x1="88.4485" y1="14.7735" x2="34.69" y2="78.7382" gradientUnits="userSpaceOnUse">
<stop offset="0.17" stop-color="#FFF44F" stop-opacity="0.8"/>
<stop offset="0.27" stop-color="#FFF44F" stop-opacity="0.63"/>
<stop offset="0.49" stop-color="#FFF44F" stop-opacity="0.22"/>
<stop offset="0.6" stop-color="#FFF44F" stop-opacity="0"/>
</linearGradient>
</defs>
</svg>
