<svg width="98" height="84" viewBox="0 0 98 84" fill="none" xmlns="http://www.w3.org/2000/svg">
<path d="M80.5582 26.9584C77.3566 22.205 73.0138 18.4417 67.5287 15.6677C62.0427 12.8936 56.0537 11.5068 49.5574 11.5068C43.0619 11.5068 37.071 12.894 31.5862 15.6677C26.1006 18.4416 21.7579 22.205 18.5563 26.9584C15.3552 31.7117 13.7545 36.9023 13.7545 42.5302C13.7545 49.2905 16.0306 55.3695 20.5841 60.7688C25.137 66.1685 31.0188 69.905 38.2288 71.9785C39.068 72.1134 39.6893 72.0185 40.0933 71.696C40.4974 71.3732 40.6992 70.9688 40.6992 70.4846C40.6992 70.4038 40.6912 69.677 40.6757 68.3033C40.6597 66.9296 40.6522 65.7312 40.6522 64.7087L39.5799 64.8694C38.8963 64.9779 38.0338 65.0239 36.9926 65.0109C35.9518 64.9983 34.8714 64.9038 33.7527 64.7281C32.6336 64.5539 31.5927 64.1499 30.6292 63.5171C29.6661 62.8842 28.9825 62.0558 28.5783 61.0331L28.1122 60.1035C27.8015 59.4847 27.3123 58.7972 26.644 58.0436C25.9756 57.2893 25.2998 56.778 24.6162 56.5087L24.2898 56.3063C24.0723 56.1717 23.8705 56.0094 23.6838 55.8211C23.4974 55.6328 23.3577 55.4443 23.2645 55.2556C23.1711 55.0667 23.2485 54.9118 23.4975 54.7902C23.7465 54.6687 24.1965 54.6097 24.8495 54.6097L25.7815 54.7304C26.4031 54.8383 27.172 55.1608 28.0892 55.6997C29.0058 56.2382 29.7594 56.9383 30.35 57.7997C31.0651 58.9041 31.9268 59.7457 32.9373 60.3248C33.947 60.9039 34.9651 61.193 35.9905 61.193C37.0159 61.193 37.9016 61.1256 38.6478 60.9916C39.3931 60.8569 40.0925 60.6545 40.7454 60.3854C41.0251 58.5803 41.7867 57.1935 43.0294 56.2242C41.2581 56.0629 39.6657 55.82 38.2512 55.497C36.8375 55.1735 35.3766 54.6486 33.8695 53.9208C32.3616 53.194 31.1107 52.2914 30.1165 51.2147C29.1221 50.1374 28.306 48.7231 27.6694 46.973C27.0324 45.2223 26.7138 43.2027 26.7138 40.9137C26.7138 37.6545 27.9417 34.8811 30.397 32.5918C29.2468 30.1415 29.3554 27.3946 30.7231 24.3515C31.6244 24.1089 32.961 24.291 34.7323 24.8967C36.5039 25.5027 37.801 26.0218 38.6249 26.4522C39.4488 26.8825 40.109 27.2471 40.6063 27.5428C43.4972 26.8428 46.4805 26.4928 49.5571 26.4928C52.6336 26.4928 55.6176 26.8428 58.5087 27.5428L60.2801 26.5737C61.4915 25.9271 62.922 25.3346 64.5682 24.7959C66.2154 24.2576 67.475 24.1093 68.3456 24.352C69.7436 27.3952 69.8682 30.1419 68.7177 32.5922C71.1728 34.8815 72.4012 37.6556 72.4012 40.9141C72.4012 43.2031 72.0815 45.229 71.4455 46.9933C70.8087 48.7578 69.9856 50.1707 68.9758 51.2349C67.965 52.2991 66.7061 53.1945 65.199 53.9212C63.6916 54.6485 62.2302 55.1734 60.8165 55.4968C59.4022 55.8203 57.8097 56.0633 56.0384 56.2249C57.6539 57.4363 58.4618 59.3485 58.4618 61.9607V70.4835C58.4618 70.9677 58.6561 71.3719 59.0451 71.6949C59.4335 72.0174 60.047 72.1123 60.8862 71.9772C68.0972 69.904 73.979 66.1674 78.5317 60.7677C83.084 55.3684 85.361 49.2893 85.361 42.529C85.3594 36.9019 83.7579 31.7117 80.5582 26.9584Z" fill="black"/>
</svg>
