<svg width="95" height="84" viewBox="0 0 95 84" fill="none" xmlns="http://www.w3.org/2000/svg">
<path d="M88.3959 46.7461L83.7869 34.3876L74.6747 9.87008C74.5668 9.59248 74.3643 9.35206 74.0958 9.18258C73.8273 9.01309 73.5062 8.92305 73.1775 8.92508C72.8498 8.92415 72.53 9.0147 72.2627 9.18411C71.9953 9.35352 71.7938 9.59333 71.6862 9.87008L62.574 34.3718H32.3075L23.1952 9.86483C23.0874 9.58863 22.8856 9.34951 22.6182 9.18099C22.3508 9.01247 22.0311 8.92299 21.7039 8.92508C21.376 8.92336 21.0558 9.01361 20.7883 9.18312C20.5208 9.35264 20.3194 9.5929 20.2126 9.87008L11.1121 34.3718L6.50902 46.7461C6.3053 47.2974 6.30549 47.8928 6.50957 48.444C6.71365 48.9952 7.11078 49.4731 7.64217 49.8068L47.4495 75.0698L87.2451 49.8068C87.7789 49.4747 88.179 48.9977 88.3863 48.4465C88.5935 47.8953 88.5969 47.2991 88.3959 46.7461Z" fill="#FC6D26"/>
<path d="M47.4436 75.054L62.5798 34.3665H32.3133L47.4436 75.054Z" fill="#E24329"/>
<path d="M47.4436 75.054L32.3016 34.3665H11.118L47.4436 75.054Z" fill="#FC6D26"/>
<path d="M11.1004 34.3823L6.49727 46.7408C6.29355 47.2922 6.29374 47.8875 6.49782 48.4388C6.7019 48.99 7.09903 49.4678 7.63043 49.8016L47.4436 75.0751L11.1004 34.3876V34.3823Z" fill="#FCA326"/>
<path d="M11.1121 34.3823H32.3192L23.1952 9.88058C23.0876 9.60383 22.8861 9.36401 22.6188 9.1946C22.3514 9.02519 22.0316 8.93464 21.7039 8.93558C21.3752 8.93354 21.0541 9.02359 20.7856 9.19307C20.5171 9.36256 20.3147 9.60298 20.2067 9.88058L11.1121 34.3823Z" fill="#E24329"/>
<path d="M47.4436 75.054L62.5798 34.3665H83.7987L47.4436 75.054Z" fill="#FC6D26"/>
<path d="M83.7869 34.3823L88.3842 46.7408C88.5888 47.2921 88.5891 47.8877 88.385 48.4392C88.1808 48.9906 87.7831 49.4684 87.251 49.8016L47.4436 75.0541L83.7752 34.3823H83.7869Z" fill="#FCA326"/>
<path d="M83.7869 34.3824H62.5916L71.6979 9.88061C71.8051 9.60257 72.0073 9.36171 72.276 9.19211C72.5447 9.02252 72.8663 8.93278 73.1951 8.93561C73.8703 8.93561 74.4692 9.31886 74.6864 9.88061L83.7987 34.3824H83.7869Z" fill="#E24329"/>
</svg>
