<svg width="74" height="67" viewBox="0 0 74 67" fill="none" xmlns="http://www.w3.org/2000/svg">
<g clip-path="url(#clip0_549_324)">
<path d="M22.7332 51.166V32.584L11.0492 24.3398V47.2402C11.0492 49.8574 12.4741 51.166 15.3238 51.166" fill="#4285F4"/>
<path d="M22.1633 32.4531L36.6971 42.5293L51.2308 32.4531V19.6289L36.6971 29.7051L22.1633 19.6289" fill="#EA4335"/>
<path d="M50.6609 51.166V32.584L62.3449 24.3398V47.2402C62.3449 49.8574 60.92 51.166 58.0703 51.166" fill="#34A853"/>
<path d="M11.0492 24.6017L22.7332 32.8458V20.0216L18.4586 17.0118C14.6114 14.2638 11.0492 17.0118 11.0492 20.4142" fill="#C5221F"/>
<path d="M62.3449 24.6017L50.6609 32.8458V20.0216L54.9355 17.0118C58.7827 14.2638 62.3449 17.0118 62.3449 20.4142" fill="#FBBC04"/>
</g>
<defs>
<clipPath id="clip0_549_324">
<rect width="72.9539" height="67" fill="white" transform="translate(0.220093)"/>
</clipPath>
</defs>
</svg>
