<svg width="84" height="68" viewBox="0 0 84 68" fill="none" xmlns="http://www.w3.org/2000/svg">
<path d="M41.702 26.4577L32.731 13.4788C33.0288 13.2302 33.3715 13.0671 33.7141 12.9575C31.0689 13.6713 29.855 16.1067 29.855 16.1067L13.4662 39.8108C13.2357 40.5541 13.1716 41.225 13.2004 41.816H31.0881L41.702 26.4577Z" fill="#34A853"/>
<path d="M41.7022 26.4577L52.3162 41.816H70.2038C70.2326 41.225 70.1686 40.5541 69.9379 39.8108L53.5492 16.1067C53.5492 16.1067 52.3322 13.6713 49.6898 12.9575C50.0294 13.0671 50.3752 13.2302 50.673 13.4788L41.7022 26.4577Z" fill="#FBBC05"/>
<path d="M41.702 26.4592L50.673 13.4804C50.3752 13.2318 50.0292 13.0687 49.6898 12.9591C49.299 12.8548 48.8796 12.7853 48.4246 12.7666H47.9505H35.4535H34.9794C34.5278 12.7826 34.105 12.8522 33.7141 12.9591C33.3748 13.0687 33.0288 13.2318 32.731 13.4804L41.702 26.4592Z" fill="#188038"/>
<path d="M31.0907 41.8162L22.2222 54.6482C22.2222 54.6482 21.9275 54.5305 21.5272 54.2871C22.7859 55.0813 24.0093 55.2496 24.0093 55.2496H58.8397C60.7613 55.2496 61.1617 54.6482 61.1617 54.6482C61.168 54.6454 61.1713 54.6427 61.1776 54.6401L52.3157 41.8162H31.0907Z" fill="#4285F4"/>
<path d="M31.0917 41.8162H13.2041C13.2938 43.5593 14.2162 44.5778 14.2162 44.5778L14.8887 45.5347C14.9368 45.591 14.9656 45.6231 14.9656 45.6231L16.4293 47.7296L19.7153 52.4186C19.8114 52.6084 19.9235 52.782 20.042 52.9478C20.0869 53.0041 20.1285 53.0655 20.1765 53.119C20.1893 53.135 20.2022 53.1511 20.215 53.1671C20.6217 53.6375 21.0765 54.0011 21.5313 54.2871C21.9317 54.5332 22.2263 54.6482 22.2263 54.6482L31.0917 41.8162Z" fill="#1967D2"/>
<path d="M52.3162 41.8162H70.2035C70.1139 43.5593 69.1916 44.5778 69.1916 44.5778L68.5189 45.5347C68.471 45.591 68.4422 45.6231 68.4422 45.6231L66.9784 47.7296L63.6924 52.4186C63.5963 52.6084 63.4843 52.782 63.3658 52.9478C63.321 53.0041 63.2792 53.0655 63.2313 53.119C63.2183 53.135 63.2056 53.1511 63.1927 53.1671C62.786 53.6375 62.3313 54.0011 61.8764 54.2871C61.4762 54.5332 61.1814 54.6482 61.1814 54.6482L52.3162 41.8162Z" fill="#EA4335"/>
</svg>
