<svg width="160" height="220" viewBox="0 0 160 220" fill="none" xmlns="http://www.w3.org/2000/svg">
<path d="M51.9371 48.642L54.7273 57.8336C55.1786 59.3164 56.704 59.29 57.1299 57.794L59.72 48.6464H75.4637C78.1491 48.6464 80.3483 45.606 80.3483 41.8836V23.474C80.3483 19.756 78.1523 16.7112 75.4637 16.7112H34.6234C31.938 16.7112 29.7388 19.7516 29.7388 23.474V41.8836C29.7388 45.6016 31.9348 48.6464 34.6234 48.6464H51.9371V48.642Z" fill="#FFD200"/>
<path d="M50.0716 24.0151C49.3343 24.0151 48.6605 24.3363 48.0631 24.9743C47.491 25.5859 47.1129 26.3647 46.8872 26.9279C46.6648 26.3603 46.2834 25.5815 45.7114 24.9743C45.1171 24.3363 44.4402 24.0151 43.7029 24.0151C41.6467 24.0151 40.0959 26.3427 40.0959 29.4315C40.0959 32.7667 42.0313 35.0503 44.9582 38.5043C45.454 39.0895 46.0196 39.7583 46.6044 40.4667C46.6807 40.5591 46.7824 40.6119 46.884 40.6119C46.9857 40.6119 47.0874 40.5591 47.1637 40.4667C47.7485 39.7583 48.3141 39.0939 48.8099 38.5043C51.7368 35.0503 53.6722 32.7667 53.6722 29.4315C53.6722 26.3427 52.1214 24.0151 50.0652 24.0151H50.0716Z" fill="white"/>
<path d="M69.9372 31.3719C69.9372 26.6771 67.1882 22.8711 63.7973 22.8711C60.4064 22.8711 57.6574 26.6771 57.6574 31.3719C57.6574 36.0667 60.4064 39.8727 63.7973 39.8727C64.9541 39.8727 66.0346 39.4195 66.9594 38.6495C67.8556 39.4327 68.9997 40.2863 69.5908 40.1499C70.1851 40.0135 69.4414 38.1347 68.6787 36.5155C69.4637 35.0855 69.9372 33.3079 69.9372 31.3763V31.3719Z" fill="white"/>
<path d="M47.5641 194.542C51.5255 194.542 54.7369 190.095 54.7369 184.611C54.7369 179.126 51.5255 174.68 47.5641 174.68C43.6028 174.68 40.3914 179.126 40.3914 184.611C40.3914 190.095 43.6028 194.542 47.5641 194.542Z" fill="#FFD200"/>
<path d="M44.4306 185.315C45.2134 185.315 45.848 184.436 45.848 183.352C45.848 182.268 45.2134 181.39 44.4306 181.39C43.6478 181.39 43.0133 182.268 43.0133 183.352C43.0133 184.436 43.6478 185.315 44.4306 185.315Z" fill="#24285B"/>
<path d="M50.6341 185.315C51.4169 185.315 52.0515 184.436 52.0515 183.352C52.0515 182.268 51.4169 181.39 50.6341 181.39C49.8513 181.39 49.2167 182.268 49.2167 183.352C49.2167 184.436 49.8513 185.315 50.6341 185.315Z" fill="#24285B"/>
<path d="M44.6722 186.798C44.6722 186.798 44.9645 190.19 47.383 190.19C49.8014 190.19 50.4529 186.798 50.4529 186.798H44.6722Z" fill="white"/>
<g opacity="0.03">
<path d="M16.0139 152.402C18.6404 151.812 20.4238 148.386 19.9972 144.75C19.5706 141.113 17.0955 138.644 14.469 139.234C11.8425 139.824 10.0591 143.25 10.4857 146.886C10.9123 150.522 13.3873 152.992 16.0139 152.402Z" fill="#000001"/>
</g>
<g opacity="0.03">
<path d="M64.5726 85.9481C67.1991 85.3582 68.9825 81.9321 68.5559 78.2958C68.1293 74.6595 65.6543 72.1899 63.0278 72.7798C60.4012 73.3697 58.6178 76.7957 59.0444 80.4321C59.471 84.0684 61.9461 86.538 64.5726 85.9481Z" fill="#000001"/>
</g>
<g opacity="0.03">
<path d="M149.136 148.085C151.763 147.495 153.546 144.069 153.119 140.433C152.693 136.797 150.218 134.327 147.591 134.917C144.965 135.507 143.181 138.933 143.608 142.569C144.035 146.206 146.51 148.675 149.136 148.085Z" fill="#000001"/>
</g>
<path d="M108.404 40.1016C112.365 40.1016 115.576 35.6554 115.576 30.1708C115.576 24.6862 112.365 20.24 108.404 20.24C104.442 20.24 101.231 24.6862 101.231 30.1708C101.231 35.6554 104.442 40.1016 108.404 40.1016Z" fill="#FFD200"/>
<path d="M105.27 30.8748C106.053 30.8748 106.687 29.9962 106.687 28.9124C106.687 27.8285 106.053 26.95 105.27 26.95C104.487 26.95 103.853 27.8285 103.853 28.9124C103.853 29.9962 104.487 30.8748 105.27 30.8748Z" fill="#24285B"/>
<path d="M111.474 30.8748C112.256 30.8748 112.891 29.9962 112.891 28.9124C112.891 27.8285 112.256 26.95 111.474 26.95C110.691 26.95 110.056 27.8285 110.056 28.9124C110.056 29.9962 110.691 30.8748 111.474 30.8748Z" fill="#24285B"/>
<path d="M111.296 35.7501C111.296 35.7501 111.003 32.3577 108.585 32.3577C106.166 32.3577 105.515 35.7501 105.515 35.7501H111.296Z" fill="white"/>
<path d="M148.36 185.385C152.322 185.385 155.533 180.939 155.533 175.454C155.533 169.97 152.322 165.524 148.36 165.524C144.399 165.524 141.188 169.97 141.188 175.454C141.188 180.939 144.399 185.385 148.36 185.385Z" fill="#FFD200"/>
<path d="M145.227 176.158C146.01 176.158 146.644 175.28 146.644 174.196C146.644 173.112 146.01 172.234 145.227 172.234C144.444 172.234 143.81 173.112 143.81 174.196C143.81 175.28 144.444 176.158 145.227 176.158Z" fill="#24285B"/>
<path d="M151.43 176.158C152.213 176.158 152.848 175.28 152.848 174.196C152.848 173.112 152.213 172.234 151.43 172.234C150.648 172.234 150.013 173.112 150.013 174.196C150.013 175.28 150.648 176.158 151.43 176.158Z" fill="#24285B"/>
<path d="M150.159 178.86H146.778C146.429 178.86 146.145 179.252 146.145 179.735C146.145 180.219 146.429 180.611 146.778 180.611H150.159C150.509 180.611 150.792 180.219 150.792 179.735C150.792 179.252 150.509 178.86 150.159 178.86Z" fill="white"/>
<path d="M153.471 50.9961H122.374C120.577 50.9961 119.12 53.0133 119.12 55.5017V84.7441C119.12 87.2325 120.577 89.2497 122.374 89.2497H153.471C155.268 89.2497 156.725 87.2325 156.725 84.7441V55.5017C156.725 53.0133 155.268 50.9961 153.471 50.9961Z" fill="#24285B"/>
<path d="M131.508 71.8609C132.659 71.8609 133.592 70.5686 133.592 68.9745C133.592 67.3804 132.659 66.0881 131.508 66.0881C130.356 66.0881 129.423 67.3804 129.423 68.9745C129.423 70.5686 130.356 71.8609 131.508 71.8609Z" fill="white"/>
<path d="M138.49 71.8609C139.641 71.8609 140.574 70.5686 140.574 68.9745C140.574 67.3804 139.641 66.0881 138.49 66.0881C137.338 66.0881 136.405 67.3804 136.405 68.9745C136.405 70.5686 137.338 71.8609 138.49 71.8609Z" fill="white"/>
<path d="M145.599 71.8609C146.75 71.8609 147.684 70.5686 147.684 68.9745C147.684 67.3804 146.75 66.0881 145.599 66.0881C144.447 66.0881 143.514 67.3804 143.514 68.9745C143.514 70.5686 144.447 71.8609 145.599 71.8609Z" fill="white"/>
<path d="M37.4677 75.2971H6.37102C4.57374 75.2971 3.11675 77.3143 3.11675 79.8027V109.045C3.11675 111.533 4.57374 113.551 6.37102 113.551H37.4677C39.2649 113.551 40.7219 111.533 40.7219 109.045V79.8027C40.7219 77.3143 39.2649 75.2971 37.4677 75.2971Z" fill="#24285B"/>
<path d="M21.9114 98.8987C21.5459 98.8987 21.1995 98.6831 20.958 98.3003L17.5353 92.9147C17.0713 92.1843 17.1222 91.0711 17.6497 90.4287C18.1773 89.7863 18.9813 89.8567 19.4453 90.5871L21.851 94.3711L25.6964 87.5071C26.1254 86.7415 26.9263 86.6007 27.4792 87.1947C28.0354 87.7887 28.1339 88.8975 27.7049 89.6631L22.9188 98.2079C22.6868 98.6215 22.3341 98.8723 21.9527 98.8899C21.94 98.8899 21.9273 98.8899 21.9146 98.8899L21.9114 98.8987Z" fill="white"/>
<path d="M126.769 120.894L135.915 90.1734C135.915 90.1734 135.407 77.651 136.932 77.9326C138.458 78.2142 138.118 86.0242 138.118 86.0242C138.118 86.0242 140.149 74.9758 142.859 75.3058C145.57 75.6358 147.092 81.4086 146.416 86.0242C145.739 90.6398 139.98 94.8858 139.98 94.8858L138.108 129.685L126.766 120.894H126.769Z" fill="#F4A28C"/>
<g opacity="0.1">
<path d="M126.769 120.894L135.915 90.1734C135.915 90.1734 135.407 77.651 136.932 77.9326C138.458 78.2142 138.118 86.0242 138.118 86.0242C138.118 86.0242 140.149 74.9758 142.859 75.3058C145.57 75.6358 147.092 81.4086 146.416 86.0242C145.739 90.6398 139.98 94.8858 139.98 94.8858L138.108 129.685L126.766 120.894H126.769Z" fill="#000001"/>
</g>
<path d="M85.7763 101.345L92.3834 116.657L100.344 111.298L91.5348 97.2048C91.5348 97.2048 94.0741 86.8868 90.5179 80.7884C86.9617 74.69 82.217 78.914 80.8631 88.0572C79.5093 97.2048 80.6947 106.889 85.7763 101.341V101.345Z" fill="#F4A28C"/>
<path d="M112.084 104.029C112.084 104.029 129.989 110.576 135.747 120.428C141.506 130.279 136.592 145.288 123.045 137.077C109.494 128.871 112.087 104.029 112.087 104.029H112.084Z" fill="#9747FF"/>
<g opacity="0.1">
<path d="M112.084 104.029C112.084 104.029 129.989 110.576 135.747 120.428C141.506 130.279 136.592 145.288 123.045 137.077C109.494 128.871 112.087 104.029 112.087 104.029H112.084Z" fill="#000001"/>
</g>
<path d="M86.4532 91.1106C86.4532 91.1106 87.0602 98.5466 90.3431 99.5542C93.6291 100.557 95.9395 92.9014 94.9226 86.0242C93.9056 79.1514 95.4215 78.2582 90.3431 75.3058C85.2678 72.349 78.3939 75.869 79.6269 81.963C80.8632 88.0614 86.4532 91.1106 86.4532 91.1106Z" fill="#FFD200"/>
<path d="M73.6586 118.857L53.9297 141.064L33.4348 113.15C33.4348 113.15 30.5555 96.976 28.1847 95.0972C25.814 93.2184 28.1847 104.478 28.1847 104.478C28.1847 104.478 20.9008 101.196 18.6984 102.604C16.4961 104.012 16.4961 117.638 29.2017 117.977C29.2017 117.977 42.9211 161.234 48.3427 164.05C53.7644 166.866 67.9573 155.263 67.9573 155.263L81.2064 140.598L73.6618 118.857H73.6586Z" fill="#F4A28C"/>
<path d="M80.5263 113.859C80.5263 113.859 90.0126 102.604 104.749 102.604C119.485 102.604 122.705 115.971 124.907 132.154C127.109 148.337 128.803 173.664 128.803 173.664L92.7234 181.645C92.7234 181.645 86.4564 172.96 79.5125 154.902C72.5686 136.844 70.5347 123.71 80.5294 113.863L80.5263 113.859Z" fill="#9747FF"/>
<g opacity="0.1">
<path d="M87.2445 135.903C87.2445 135.903 86.7933 149.191 91.7605 160.763C96.7277 172.33 105.051 178.913 105.051 178.913L92.7202 181.641C92.7202 181.641 81.1015 161.757 77.3959 148.359C73.6904 134.961 87.2414 135.903 87.2414 135.903H87.2445Z" fill="#000001"/>
</g>
<path d="M88.9956 139.889L67.9573 155.258L59.0144 134.024C59.0144 134.024 72.861 114.897 83.2148 111.21C93.5687 107.523 102.375 130.271 88.9956 139.885V139.889Z" fill="#9747FF"/>
<g opacity="0.3">
<path d="M88.9956 139.889L67.9573 155.258L59.0144 134.024C59.0144 134.024 72.861 114.897 83.2148 111.21C93.5687 107.523 102.375 130.271 88.9956 139.885V139.889Z" fill="white"/>
</g>
<path d="M95.317 72.1511C95.317 72.1511 95.3074 72.1511 95.3042 72.1511C95.0403 72.1423 94.8336 71.8387 94.84 71.4735L94.9131 67.7995C94.9194 67.4343 95.1357 67.1351 95.4028 67.1571C95.6668 67.1659 95.8734 67.4695 95.8671 67.8347L95.794 71.5087C95.7876 71.8651 95.5745 72.1511 95.317 72.1511Z" fill="#A5A5A5"/>
<path d="M100.5 76.3355C100.5 76.3355 100.49 76.3355 100.487 76.3355L97.8336 76.2343C97.5698 76.2255 97.3633 75.9219 97.3696 75.5567C97.376 75.1915 97.6016 74.8967 97.859 74.9143L100.513 75.0155C100.776 75.0243 100.983 75.3279 100.977 75.6931C100.97 76.0495 100.757 76.3355 100.5 76.3355Z" fill="#A5A5A5"/>
<path d="M97.6302 72.9123C97.4809 72.9123 97.3347 72.8155 97.2425 72.6351C97.09 72.3403 97.1408 71.9267 97.3537 71.7155L99.5148 69.5815C99.7277 69.3703 100.026 69.4407 100.179 69.7355C100.332 70.0303 100.281 70.4439 100.068 70.6551L97.9067 72.7891C97.8241 72.8727 97.7256 72.9123 97.6302 72.9123Z" fill="#A5A5A5"/>
<path d="M92.7202 181.641L88.0327 203.289H129.477C129.477 203.289 132.979 190.001 128.8 173.659L92.7202 181.641Z" fill="#24285B"/>
<g opacity="0.1">
<path d="M105.054 178.913L104.072 203.289H88.0359L92.7202 181.641L105.054 178.913Z" fill="#000001"/>
</g>
</svg>
