<svg width="160" height="220" viewBox="0 0 160 220" fill="none" xmlns="http://www.w3.org/2000/svg">
<g opacity="0.45">
<path d="M115.724 146.7C115.336 146.7 115.025 146.265 115.025 145.732C115.025 145.2 115.339 144.764 115.724 144.764C115.73 144.764 116.236 144.764 117.106 144.707C117.488 144.681 117.818 145.094 117.837 145.631C117.856 146.164 117.558 146.617 117.17 146.643C116.264 146.7 115.746 146.7 115.724 146.7ZM122.728 145.922C122.385 145.922 122.083 145.57 122.035 145.086C121.985 144.558 122.251 144.069 122.633 143.994C123.078 143.911 123.535 143.814 124.006 143.713C124.384 143.625 124.746 143.986 124.807 144.514C124.867 145.042 124.606 145.539 124.225 145.622C123.745 145.728 123.278 145.825 122.824 145.913C122.792 145.917 122.76 145.922 122.728 145.922ZM129.602 144.034C129.294 144.034 129.011 143.748 128.925 143.312C128.827 142.798 129.049 142.265 129.421 142.129C129.863 141.966 130.305 141.794 130.749 141.61C131.121 141.456 131.509 141.75 131.62 142.261C131.731 142.776 131.519 143.312 131.15 143.466C130.692 143.656 130.235 143.832 129.783 143.999C129.723 144.021 129.663 144.034 129.602 144.034ZM136.193 140.787C135.93 140.787 135.678 140.58 135.558 140.228C135.396 139.744 135.545 139.168 135.895 138.943C136.314 138.67 136.73 138.389 137.124 138.103C137.468 137.852 137.89 138.037 138.068 138.512C138.246 138.987 138.116 139.572 137.773 139.819C137.36 140.118 136.924 140.417 136.486 140.699C136.39 140.76 136.289 140.791 136.19 140.791L136.193 140.787ZM142.082 135.608C141.888 135.608 141.694 135.494 141.555 135.278C141.3 134.873 141.329 134.262 141.621 133.91C141.965 133.496 142.295 133.065 142.6 132.634C142.87 132.251 143.315 132.246 143.589 132.625C143.865 132.999 143.868 133.615 143.598 133.993C143.268 134.46 142.912 134.922 142.54 135.37C142.406 135.529 142.244 135.608 142.079 135.608H142.082ZM146.274 127.974C146.175 127.974 146.077 127.948 145.985 127.886C145.635 127.662 145.479 127.09 145.638 126.601C145.823 126.047 145.988 125.47 146.131 124.894C146.258 124.388 146.655 124.12 147.021 124.296C147.386 124.472 147.58 125.022 147.453 125.528C147.294 126.161 147.113 126.79 146.91 127.402C146.792 127.758 146.538 127.97 146.274 127.97V127.974ZM147.682 118.593C147.294 118.593 146.983 118.162 146.983 117.625C146.983 117.009 146.967 116.38 146.935 115.76C146.91 115.227 147.199 114.765 147.583 114.726C147.958 114.686 148.301 115.091 148.33 115.623C148.365 116.292 148.381 116.965 148.381 117.621C148.381 118.158 148.066 118.589 147.682 118.589V118.593ZM146.617 109.058C146.312 109.058 146.032 108.781 145.943 108.354C145.816 107.738 145.683 107.136 145.543 106.542C145.422 106.036 145.622 105.486 145.988 105.318C146.353 105.151 146.751 105.428 146.871 105.934C147.018 106.55 147.157 107.18 147.291 107.822C147.396 108.337 147.18 108.874 146.808 109.019C146.744 109.045 146.681 109.054 146.617 109.054V109.058ZM31.7486 105.917C31.3609 105.917 31.0368 105.481 31.0368 104.949C31.0368 104.416 31.3387 103.981 31.7232 103.981C32.1872 103.981 32.6353 103.963 33.0866 103.932C33.4679 103.897 33.8016 104.315 33.8207 104.848C33.8398 105.38 33.5442 105.838 33.1597 105.864C32.6861 105.899 32.2126 105.917 31.7486 105.917ZM26.184 105.006C26.1299 105.006 26.0727 104.997 26.0155 104.975C25.5484 104.817 25.0812 104.632 24.6268 104.43C24.2581 104.267 24.0547 103.721 24.1755 103.211C24.2931 102.7 24.6871 102.419 25.0558 102.586C25.4816 102.775 25.9202 102.947 26.3556 103.096C26.7306 103.224 26.9594 103.752 26.8672 104.271C26.7878 104.711 26.5018 105.006 26.1872 105.006H26.184ZM38.6481 104.72C38.3334 104.72 38.0474 104.421 37.968 103.981C37.8758 103.462 38.1078 102.938 38.4828 102.81C38.9214 102.665 39.3631 102.502 39.808 102.326C40.1767 102.177 40.5676 102.48 40.6724 102.991C40.7773 103.501 40.5612 104.042 40.1926 104.188C39.7286 104.372 39.2678 104.54 38.8133 104.689C38.7593 104.707 38.7021 104.716 38.6481 104.716V104.72ZM45.2551 101.583C44.985 101.583 44.7276 101.363 44.6131 101.002C44.4606 100.509 44.6227 99.9417 44.9754 99.7261C45.3981 99.4709 45.8303 99.2157 46.2657 98.9561C46.6216 98.7449 47.0316 98.9737 47.1841 99.4665C47.3367 99.9593 47.1714 100.527 46.8155 100.738C46.3833 100.993 45.9543 101.248 45.5348 101.504C45.4426 101.556 45.3504 101.583 45.2551 101.583ZM19.8248 101.099C19.6882 101.099 19.5515 101.046 19.4307 100.932C19.0303 100.553 18.6394 100.148 18.2644 99.7349C17.9625 99.4005 17.9148 98.7889 18.1564 98.3753C18.3979 97.9573 18.8365 97.8913 19.1415 98.2257C19.4879 98.6085 19.8502 98.9825 20.2221 99.3345C20.5399 99.6381 20.6225 100.241 20.4032 100.681C20.2666 100.954 20.0473 101.103 19.8248 101.103V101.099ZM143.979 100.118C143.735 100.118 143.496 99.9373 143.366 99.6205C143.147 99.0705 142.912 98.5249 142.673 97.9969C142.47 97.5437 142.568 96.9453 142.896 96.6637C143.223 96.3821 143.655 96.5185 143.859 96.9717C144.11 97.5261 144.354 98.1025 144.59 98.6833C144.777 99.1497 144.656 99.7393 144.316 99.9989C144.208 100.082 144.091 100.122 143.976 100.122L143.979 100.118ZM51.7128 97.8605C51.4363 97.8605 51.1725 97.6273 51.0645 97.2489C50.9215 96.7517 51.0962 96.1885 51.4554 95.9905C51.8876 95.7529 52.323 95.5153 52.7615 95.2777C53.1206 95.0841 53.5274 95.3261 53.6672 95.8277C53.8071 96.3293 53.6323 96.8881 53.27 97.0817C52.8346 97.3193 52.3992 97.5569 51.9702 97.7901C51.8844 97.8385 51.7986 97.8605 51.7128 97.8605ZM58.2499 94.4021C57.9639 94.4021 57.6969 94.1601 57.5921 93.7641C57.4586 93.2625 57.6461 92.7037 58.0084 92.5233C58.4469 92.3033 58.8855 92.0833 59.3272 91.8633C59.6895 91.6829 60.09 91.9425 60.2234 92.4485C60.3537 92.9501 60.1662 93.5045 59.8008 93.6893C59.3622 93.9093 58.9236 94.1293 58.4883 94.3493C58.4088 94.3889 58.3294 94.4065 58.2467 94.4065L58.2499 94.4021ZM14.9275 94.2657C14.7019 94.2657 14.4826 94.1161 14.346 93.8389C14.0758 93.2845 13.8184 92.7081 13.5832 92.1273C13.3926 91.6609 13.5101 91.0713 13.847 90.8073C14.1807 90.5433 14.6097 90.7061 14.8004 91.1725C15.0197 91.7093 15.258 92.2417 15.5091 92.7565C15.7252 93.2009 15.6394 93.8037 15.3184 94.1029C15.1977 94.2129 15.0642 94.2657 14.9275 94.2657ZM139.81 92.3869C139.629 92.3869 139.448 92.2901 139.311 92.0965C138.993 91.6477 138.663 91.2121 138.329 90.7897C138.043 90.4289 138.024 89.8173 138.281 89.4213C138.542 89.0253 138.984 88.9989 139.27 89.3553C139.622 89.7997 139.972 90.2617 140.306 90.7369C140.576 91.1197 140.573 91.7313 140.296 92.1053C140.159 92.2901 139.981 92.3825 139.807 92.3825L139.81 92.3869ZM64.8538 91.2077C64.5614 91.2077 64.2881 90.9525 64.1896 90.5433C64.0688 90.0373 64.2658 89.4873 64.6313 89.3201C65.0731 89.1177 65.518 88.9153 65.9629 88.7129C66.3315 88.5457 66.7256 88.8229 66.8464 89.3333C66.9671 89.8393 66.7669 90.3893 66.3983 90.5521C65.9534 90.7545 65.5116 90.9525 65.0731 91.1549C65 91.1901 64.9269 91.2033 64.8538 91.2033V91.2077ZM71.5244 88.2905C71.2225 88.2905 70.946 88.0177 70.8538 87.5997C70.7426 87.0849 70.9555 86.5481 71.3242 86.3941C71.7723 86.2093 72.2204 86.0245 72.6716 85.8441C73.0403 85.6945 73.4312 85.9893 73.5392 86.5041C73.6473 87.0189 73.4343 87.5557 73.0625 87.7053C72.6144 87.8857 72.1695 88.0705 71.7246 88.2509C71.6579 88.2773 71.5911 88.2905 71.5244 88.2905ZM134.302 86.4645C134.182 86.4645 134.058 86.4205 133.946 86.3281C133.559 86.0113 133.158 85.6989 132.755 85.4041C132.415 85.1533 132.284 84.5681 132.466 84.0929C132.647 83.6177 133.073 83.4417 133.409 83.6925C133.832 84.0005 134.252 84.3261 134.658 84.6605C134.992 84.9333 135.1 85.5273 134.906 85.9849C134.776 86.2929 134.544 86.4601 134.302 86.4601V86.4645ZM78.2617 85.6725C77.9503 85.6725 77.6674 85.3865 77.5848 84.9509C77.4863 84.4317 77.7087 83.9037 78.0838 83.7673C78.5382 83.6045 78.9927 83.4417 79.4471 83.2789C79.8221 83.1469 80.2035 83.4593 80.2988 83.9785C80.3942 84.4977 80.1685 85.0257 79.7935 85.1577C79.3422 85.3161 78.891 85.4789 78.4397 85.6417C78.3793 85.6637 78.3189 85.6725 78.2617 85.6725ZM12.1881 85.4173C11.8671 85.4173 11.5779 85.1093 11.5048 84.6605C11.4 84.0093 11.311 83.3449 11.2411 82.6849C11.187 82.1569 11.4508 81.6641 11.8322 81.5849C12.2135 81.5057 12.5695 81.8753 12.6267 82.4033C12.6902 83.0105 12.7729 83.6265 12.8714 84.2337C12.9572 84.7573 12.7188 85.2721 12.3406 85.3909C12.2898 85.4085 12.2389 85.4129 12.1881 85.4129V85.4173ZM85.0658 83.3889C84.7448 83.3889 84.4556 83.0809 84.3825 82.6277C84.2999 82.1041 84.5383 81.5893 84.9133 81.4749C85.3709 81.3341 85.8285 81.1977 86.2861 81.0613C86.6643 80.9513 87.0362 81.2857 87.1156 81.8093C87.1951 82.3329 86.9535 82.8477 86.5753 82.9577C86.1209 83.0897 85.6664 83.2261 85.2152 83.3669C85.1643 83.3845 85.1135 83.3889 85.0626 83.3889H85.0658ZM127.94 82.4957C127.867 82.4957 127.791 82.4781 127.718 82.4473C127.285 82.2493 126.85 82.0557 126.408 81.8753C126.036 81.7257 125.827 81.1845 125.935 80.6741C126.043 80.1593 126.434 79.8689 126.802 80.0185C127.26 80.2077 127.714 80.4013 128.159 80.6125C128.525 80.7841 128.722 81.3297 128.601 81.8401C128.503 82.2449 128.229 82.5001 127.937 82.5001L127.94 82.4957ZM91.9271 81.5057C91.5934 81.5057 91.2978 81.1757 91.2375 80.7049C91.1707 80.1769 91.425 79.6753 91.8063 79.5829C92.2671 79.4729 92.7279 79.3629 93.1887 79.2573C93.5669 79.1737 93.9292 79.5257 93.9928 80.0537C94.0563 80.5817 93.7957 81.0789 93.4144 81.1669C92.9599 81.2725 92.5023 81.3781 92.0447 81.4881C92.0034 81.4969 91.962 81.5013 91.9239 81.5013L91.9271 81.5057ZM121.155 80.1945C121.117 80.1945 121.079 80.1945 121.037 80.1813C120.586 80.0757 120.132 79.9789 119.674 79.8909C119.293 79.8161 119.026 79.3277 119.08 78.7953C119.134 78.2673 119.487 77.8977 119.871 77.9725C120.342 78.0649 120.809 78.1617 121.273 78.2717C121.654 78.3597 121.911 78.8613 121.848 79.3849C121.791 79.8601 121.495 80.1945 121.158 80.1945H121.155ZM98.8392 80.0889C98.4896 80.0889 98.1877 79.7281 98.1464 79.2353C98.0987 78.7029 98.3752 78.2233 98.7566 78.1573C99.2238 78.0781 99.6909 78.0077 100.155 77.9373C100.536 77.8757 100.883 78.2629 100.924 78.7953C100.965 79.3277 100.689 79.8029 100.304 79.8601C99.8435 79.9305 99.3827 80.0009 98.9218 80.0801C98.8932 80.0845 98.8646 80.0889 98.836 80.0889H98.8392ZM105.809 79.2397C105.44 79.2397 105.132 78.8393 105.109 78.3245C105.087 77.7921 105.386 77.3345 105.77 77.3037C106.241 77.2685 106.711 77.2377 107.178 77.2113C107.588 77.1981 107.89 77.6073 107.906 78.1397C107.922 78.6721 107.62 79.1253 107.232 79.1429C106.771 79.1693 106.311 79.1957 105.847 79.2309C105.834 79.2309 105.821 79.2309 105.809 79.2309V79.2397ZM114.202 79.1825C114.202 79.1825 114.179 79.1825 114.167 79.1825C113.709 79.1517 113.245 79.1253 112.784 79.1077C112.397 79.0901 112.095 78.6457 112.104 78.1089C112.114 77.5721 112.444 77.1497 112.826 77.1673C113.299 77.1849 113.769 77.2113 114.237 77.2465C114.621 77.2729 114.92 77.7261 114.901 78.2629C114.882 78.7821 114.573 79.1825 114.202 79.1825ZM11.9339 75.7989C11.9021 75.7989 11.8671 75.7989 11.8322 75.7901C11.4508 75.7153 11.1839 75.2225 11.2411 74.6945C11.3078 74.0345 11.3968 73.3701 11.4985 72.7189C11.5811 72.1953 11.9529 71.8653 12.3311 71.9797C12.7093 72.0941 12.9476 72.6089 12.865 73.1325C12.7697 73.7353 12.687 74.3557 12.6235 74.9673C12.5726 75.4513 12.2739 75.7989 11.9307 75.7989H11.9339ZM14.1108 66.6513C13.9996 66.6513 13.8883 66.6161 13.7835 66.5369C13.4434 66.2861 13.3131 65.6965 13.4943 65.2257C13.7167 64.6449 13.9614 64.0641 14.2157 63.4921C14.4191 63.0389 14.8513 62.8981 15.1786 63.1797C15.5059 63.4613 15.6076 64.0597 15.4042 64.5129C15.1659 65.0453 14.9371 65.5909 14.7305 66.1365C14.6034 66.4621 14.3618 66.6513 14.114 66.6513H14.1108ZM18.3184 58.9645C18.1373 58.9645 17.9562 58.8677 17.8163 58.6697C17.5462 58.2869 17.5526 57.6753 17.829 57.3013C18.1691 56.8437 18.525 56.3905 18.8873 55.9549C19.1797 55.6029 19.6214 55.6469 19.8757 56.0473C20.1299 56.4521 20.0981 57.0637 19.8057 57.4157C19.4625 57.8293 19.1257 58.2561 18.8047 58.6917C18.668 58.8765 18.4932 58.9645 18.3153 58.9645H18.3184ZM23.9117 53.1961C23.6702 53.1961 23.4318 53.0201 23.3047 52.7077C23.114 52.2413 23.2284 51.6517 23.5653 51.3877C23.9721 51.0665 24.3916 50.7497 24.8206 50.4461C25.1638 50.1997 25.5865 50.3889 25.7613 50.8641C25.9393 51.3393 25.8026 51.9245 25.4594 52.1665C25.0494 52.4613 24.649 52.7605 24.2581 53.0685C24.1501 53.1565 24.0293 53.1961 23.9117 53.1961Z" fill="#E6E6E6"/>
</g>
<path d="M22.1352 47.476L15.8492 42.3984L41.2191 38.4868L29.6162 62.2424L25.4848 50.0148L22.1352 47.476Z" fill="#FFD200"/>
<path d="M22.1352 47.476L23.8926 56.342L25.4848 50.0148L41.219 38.4868L22.1352 47.476Z" fill="#FFD200"/>
<g opacity="0.46">
<path d="M22.1352 47.476L23.8926 56.342L25.4848 50.0148L41.219 38.4868L22.1352 47.476Z" fill="white"/>
</g>
<path d="M23.8926 56.3421L26.6924 53.5833L25.4848 50.0149L23.8926 56.3421Z" fill="#24285B"/>
<g opacity="0.03">
<path d="M79.749 201.665C116.386 201.665 146.086 195.753 146.086 188.461C146.086 181.168 116.386 175.256 79.749 175.256C43.1119 175.256 13.4116 181.168 13.4116 188.461C13.4116 195.753 43.1119 201.665 79.749 201.665Z" fill="#000001"/>
</g>
<g opacity="0.58">
<path d="M29.2762 176.625C29.2762 176.625 23.2856 174.359 21.9795 166.637C21.9795 166.637 31.2624 164.041 31.5294 177.307L29.2762 176.625Z" fill="#9747FF"/>
</g>
<g opacity="0.73">
<path d="M30.0103 175.802C30.0103 175.802 25.8249 166.637 29.5082 158.07C29.5082 158.07 36.5665 164.278 33.4298 175.82L30.0103 175.798V175.802Z" fill="#9747FF"/>
</g>
<path d="M31.0876 175.811C31.0876 175.811 33.2995 166.135 39.986 164.301C39.986 164.301 41.2381 170.584 35.6576 175.837L31.0876 175.811Z" fill="#9747FF"/>
<path d="M26.7433 175.591L27.9573 187.097L35.6067 187.141L36.7349 175.648L26.7433 175.591Z" fill="#24285B"/>
<path d="M135.942 176.37H102.777V188.456H135.942V176.37Z" fill="#A5A5A5"/>
<g opacity="0.43">
<path d="M128.693 164.547H95.5277V176.633H128.693V164.547Z" fill="#E6E6E6"/>
</g>
<path d="M112.11 25.4231H46.45V188.461H112.11V25.4231Z" fill="#E6E6E6"/>
<path d="M106.228 44.0088H51.8812V158.752H106.228V44.0088Z" fill="white"/>
<g opacity="0.56">
<path d="M79.4789 182.331C83.026 182.331 85.9016 178.35 85.9016 173.439C85.9016 168.528 83.026 164.547 79.4789 164.547C75.9317 164.547 73.0562 168.528 73.0562 173.439C73.0562 178.35 75.9317 182.331 79.4789 182.331Z" fill="white"/>
</g>
<g opacity="0.12">
<path d="M92.1336 31.7942H73.7235V35.5122H92.1336V31.7942Z" fill="#000001"/>
</g>
<path d="M67.0561 38.2051C68.7112 38.2051 70.053 36.3475 70.053 34.0559C70.053 31.7644 68.7112 29.9067 67.0561 29.9067C65.401 29.9067 64.0593 31.7644 64.0593 34.0559C64.0593 36.3475 65.401 38.2051 67.0561 38.2051Z" fill="white"/>
<path d="M101.127 65.5686H57.5475V134.068H101.127V65.5686Z" fill="#E6E6E6"/>
<path d="M60.805 60.2402C62.6023 60.2402 64.0592 58.223 64.0592 55.7346C64.0592 53.2462 62.6023 51.229 60.805 51.229C59.0077 51.229 57.5507 53.2462 57.5507 55.7346C57.5507 58.223 59.0077 60.2402 60.805 60.2402Z" fill="#A5A5A5"/>
<g opacity="0.12">
<path d="M82.9556 125.105H101.127V134.068H80.7532L82.9556 125.105Z" fill="#000001"/>
</g>
<path d="M76.0308 52.272H66.554V54.5908H76.0308V52.272Z" fill="#E6E6E6"/>
<g opacity="0.56">
<path d="M76.0308 56.8875H66.554V59.2063H76.0308V56.8875Z" fill="#E6E6E6"/>
</g>
<path d="M67.5487 138.846C67.072 138.846 66.6334 139.057 66.2489 139.467C65.8802 139.863 65.6323 140.369 65.4893 140.734C65.3432 140.369 65.0984 139.863 64.7298 139.467C64.3453 139.053 63.9067 138.846 63.43 138.846C62.0984 138.846 61.0942 140.355 61.0942 142.357C61.0942 144.518 62.3463 145.996 64.2436 148.236C64.5645 148.614 64.93 149.045 65.3114 149.507C65.3622 149.569 65.4258 149.6 65.4925 149.6C65.5593 149.6 65.6228 149.565 65.6737 149.507C66.0518 149.05 66.4173 148.619 66.7415 148.236C68.6387 145.996 69.8909 144.518 69.8909 142.357C69.8909 140.355 68.8866 138.846 67.555 138.846H67.5487Z" fill="#A5A5A5"/>
<path d="M97.5426 140.193H73.1578V143.286H97.5426V140.193Z" fill="#E6E6E6"/>
<path d="M87.4652 134.068C87.6813 134.068 96.5987 110.73 96.5987 110.73L93.3095 108.878L80.3465 134.068H87.4652Z" fill="#9747FF"/>
<g opacity="0.34">
<path d="M97.5426 145.156H73.1578V148.249H97.5426V145.156Z" fill="#E6E6E6"/>
</g>
<path d="M72.6525 80.7399C72.6525 80.7399 73.7839 85.3467 73.768 88.6731C73.7617 90.0239 72.9544 91.1239 71.9788 91.0975C70.768 91.0623 69.1409 90.5299 68.3178 88.1627L66.5635 84.3831C66.5635 84.3831 65.5243 81.9631 67.1069 79.3891C68.6896 76.8195 72.0614 77.8843 72.6494 80.7399H72.6525Z" fill="#F4A28C"/>
<path d="M67.269 85.2983L65.4893 98.4939L71.4767 101.97L70.501 90.4595L67.269 85.2983Z" fill="#F4A28C"/>
<path d="M73.2596 83.6924L74.5348 85.1884C74.8496 85.558 74.7796 86.2532 74.4044 86.4908L73.1578 87.274L73.2596 83.688V83.6924Z" fill="#F4A28C"/>
<g opacity="0.31">
<path d="M70.5296 90.7851C70.5296 90.7851 69.2171 90.2615 68.5815 89.0955C68.5815 89.0955 67.8919 92.4527 70.8093 94.0807L70.5296 90.7851Z" fill="#CE8172"/>
</g>
<path d="M67.4343 87.9118C67.4343 87.9118 69.3729 92.0214 71.1176 92.0786C72.8655 92.1314 75.2807 91.621 74.3242 87.8194C73.7299 85.4566 71.8962 87.0142 69.6875 88.4574C69.6875 88.4574 68.0572 85.8086 67.9046 83.833C67.9046 83.833 69.3188 82.9442 68.8167 81.1666C68.8167 81.1666 72.643 82.601 72.8972 79.7762C73.1515 76.9514 72.7479 75.5214 71 75.143C69.2521 74.7646 64.9364 76.8854 64.3199 80.0182C63.7033 83.151 67.4343 87.9074 67.4343 87.9074V87.9118Z" fill="#24285B"/>
<path d="M67.6218 87.1418C67.625 86.3322 67.3167 85.5578 66.7891 85.2102C66.4618 84.9946 66.0646 84.9506 65.6641 85.395C64.6567 86.5126 66.0264 89.3594 67.6154 88.3166L67.6218 87.1418Z" fill="#F4A28C"/>
<path d="M96.5956 110.73C96.5956 110.73 99.0299 103.721 96.0871 101.965C93.1443 100.214 94.0087 109.076 94.0087 109.076L96.5987 110.73H96.5956Z" fill="#E59383"/>
<path d="M57.5475 98.0231C57.5475 98.0231 69.7733 96.6283 77.6833 103.998C85.5933 111.364 82.5742 134.068 82.5742 134.068H57.5475V98.0275V98.0231Z" fill="#9747FF"/>
<g opacity="0.12">
<path d="M62.6768 100.267C62.6768 100.267 68.4767 103.501 68.8358 112.561C69.1949 121.62 70.4248 130.882 76.463 130.882C82.5012 130.882 95.8169 110.506 95.8169 110.506L96.5955 110.735L87.462 134.072H71.0667C71.0667 134.072 60.3283 134.279 62.6768 100.271V100.267Z" fill="#000001"/>
</g>
<path d="M74.8199 129.619L90.3222 110.501L93.3921 115.148L82.6537 134.068H71.0667L74.8199 129.619Z" fill="#9747FF"/>
<g opacity="0.46">
<path d="M74.8199 129.619L90.3222 110.501L93.3921 115.148L82.6537 134.068H71.0667L74.8199 129.619Z" fill="white"/>
</g>
<path d="M90.7989 111.223C90.7989 111.223 92.0574 107.294 93.3921 106.942C94.7269 106.59 98.3117 109.472 92.9949 114.55L90.7989 111.223Z" fill="#F4A28C"/>
<path d="M63.5953 98.12C63.5953 98.12 64.2499 94.7892 67.6218 95.5372C70.9936 96.2852 73.0911 96.6064 73.1579 100.852L63.5953 98.12Z" fill="white"/>
<path d="M94.6665 103.294L93.6845 103.352L93.6591 102.555L94.6411 102.498C95.2353 102.463 95.6993 101.763 95.6707 100.94C95.6453 100.118 95.14 99.4751 94.5457 99.5147L93.5637 99.5719L93.5383 98.7755L94.5203 98.7183C95.4324 98.6655 96.2046 99.6467 96.2428 100.905C96.2809 102.168 95.5722 103.237 94.6633 103.29L94.6665 103.294Z" fill="#FFD200"/>
<g opacity="0.46">
<path d="M94.6665 103.294L93.6845 103.352L93.6591 102.555L94.6411 102.498C95.2353 102.463 95.6993 101.763 95.6707 100.94C95.6453 100.118 95.14 99.4751 94.5457 99.5147L93.5637 99.5719L93.5383 98.7755L94.5203 98.7183C95.4324 98.6655 96.2046 99.6467 96.2428 100.905C96.2809 102.168 95.5722 103.237 94.6633 103.29L94.6665 103.294Z" fill="white"/>
</g>
<path d="M93.8593 104.284L90.408 104.491L89.1495 97.1916L94.4663 96.8748L93.8593 104.284Z" fill="#FFD200"/>
<path d="M88.1453 104.491H96.5955L95.121 106.942H89.766L88.1453 104.491Z" fill="#FFD200"/>
<g opacity="0.31">
<path d="M88.1453 104.491H96.5955L95.121 106.942H89.766L88.1453 104.491Z" fill="#CE8172"/>
</g>
<g opacity="0.54">
<path d="M93.8911 96.9099C93.8911 96.9099 95.6294 92.5979 93.3095 91.4055C90.9896 90.2087 89.5499 93.7111 88.6506 89.0999C87.7512 84.4887 86.0255 83.0411 82.7903 84.1895C79.5551 85.3335 82.5393 91.0843 78.9068 91.5947C75.2744 92.1051 76.0053 99.5719 79.0562 99.4223C82.1071 99.2727 84.4079 91.3395 85.6315 94.0851C86.855 96.8307 89.623 97.1695 89.623 97.1695L93.8911 96.9143V96.9099Z" fill="white"/>
</g>
<path d="M57.5475 98.0232C57.5475 98.0232 64.3071 96.8264 64.9554 107.681C65.6038 118.532 63.0868 130.781 71.0667 134.064H57.5475V98.0232Z" fill="#9747FF"/>
<g opacity="0.46">
<path d="M57.5475 98.0232C57.5475 98.0232 64.3071 96.8264 64.9554 107.681C65.6038 118.532 63.0868 130.781 71.0667 134.064H57.5475V98.0232Z" fill="white"/>
</g>
<g opacity="0.12">
<path d="M112.11 51.5986H98.9123V58.0446H112.11V51.5986Z" fill="#000001"/>
</g>
<path d="M135.033 18.3347H94.7968V51.4579H135.033V18.3347Z" fill="#24285B"/>
<path d="M109.539 28.5691C108.891 28.5691 108.3 28.8551 107.776 29.4139C107.274 29.9507 106.94 30.6371 106.743 31.1343C106.546 30.6371 106.212 29.9507 105.71 29.4139C105.186 28.8551 104.595 28.5691 103.946 28.5691C102.141 28.5691 100.778 30.6151 100.778 33.3299C100.778 36.2603 102.478 38.2667 105.052 41.3027C105.488 41.8175 105.983 42.4027 106.498 43.0275C106.565 43.1111 106.654 43.1551 106.743 43.1551C106.832 43.1551 106.921 43.1111 106.988 43.0275C107.502 42.4027 107.998 41.8219 108.434 41.3027C111.008 38.2667 112.705 36.2603 112.705 33.3299C112.705 30.6151 111.341 28.5691 109.536 28.5691H109.539Z" fill="#9747FF"/>
<path d="M117.583 38.1436C117.697 38.984 118.085 39.4636 118.768 39.4636C119.63 39.4636 120.005 38.5792 120.005 36.1944C119.68 36.8192 119.061 37.18 118.39 37.18C117.068 37.18 116.01 36.0316 116.01 33.7964C116.01 31.6756 116.976 30.2808 118.59 30.2808C120.666 30.2808 121.308 32.2256 121.308 35.5784C121.308 39.182 120.729 41.1268 118.708 41.1268C117.081 41.1268 116.305 39.688 116.223 38.1348H117.586L117.583 38.1436ZM119.868 33.814C119.868 32.6524 119.385 32.0144 118.641 32.0144C117.898 32.0144 117.415 32.7272 117.415 33.7876C117.415 34.7468 117.802 35.53 118.695 35.53C119.429 35.53 119.871 34.848 119.871 33.814H119.868Z" fill="white"/>
<path d="M124.146 38.1436C124.26 38.984 124.648 39.4636 125.331 39.4636C126.192 39.4636 126.567 38.5792 126.567 36.1944C126.243 36.8192 125.623 37.18 124.953 37.18C123.631 37.18 122.572 36.0316 122.572 33.7964C122.572 31.6756 123.539 30.2808 125.153 30.2808C127.228 30.2808 127.87 32.2256 127.87 35.5784C127.87 39.182 127.292 41.1268 125.271 41.1268C123.643 41.1268 122.868 39.688 122.785 38.1348H124.149L124.146 38.1436ZM126.431 33.814C126.431 32.6524 125.947 32.0144 125.204 32.0144C124.46 32.0144 123.977 32.7272 123.977 33.7876C123.977 34.7468 124.365 35.53 125.258 35.53C125.992 35.53 126.434 34.848 126.434 33.814H126.431Z" fill="white"/>
</svg>
