<svg width="160" height="220" viewBox="0 0 160 220" fill="none" xmlns="http://www.w3.org/2000/svg">
<path d="M53.1079 192.936C53.1079 192.936 53.5401 196.112 56.4607 196.94C56.7753 197.028 57.0518 197.146 57.2965 197.287C58.752 198.132 58.3135 201.137 56.734 201.15L49.2244 201.199C48.3727 201.203 47.7022 200.2 47.7721 199.025L48.1312 192.931H53.1079V192.936Z" fill="#FFD200"/>
<path d="M65.6038 192.936C65.6038 192.936 66.036 196.112 68.9565 196.94C69.2712 197.028 69.5477 197.146 69.7924 197.287C71.2479 198.132 70.8093 201.137 69.2299 201.15L61.7203 201.199C60.8686 201.203 60.198 200.2 60.2679 199.025L60.627 192.931H65.6038V192.936Z" fill="#FFD200"/>
<path d="M41.0061 125.22L47.8102 163.046L47.1238 193.662L53.9533 193.829L56.8834 166.175C57.2107 163.583 57.3092 160.948 57.1726 158.321L57.2298 135.423C57.2298 135.423 63.6716 131.644 64.9015 123.653C66.1313 115.663 41.003 125.215 41.003 125.215L41.0061 125.22Z" fill="#24285B"/>
<path d="M59.1588 66.2287L75.1568 55.8183L63.3283 34.3903C63.3283 34.3903 57.3855 35.7763 56.0889 32.4279C54.7891 29.0839 64.3294 28.8551 64.3294 28.8551L65.5625 17.8463C65.5625 17.8463 68.4957 19.4171 68.3782 25.7091L68.2606 32.0011C68.2606 32.0011 81.2427 46.1559 86.7597 57.8379C92.2767 69.5199 68.3782 85.3863 68.3782 85.3863L59.1588 66.2243V66.2287Z" fill="#F4A28C"/>
<path d="M65.9883 120.472L69.0392 157.7C69.2775 160.618 69.2458 163.561 68.9407 166.47L66.7065 194.146L59.6895 193.833L60.3124 162.092L54.6143 131.085L65.9915 120.472H65.9883Z" fill="#24285B"/>
<path d="M57.2902 67.078L71.3051 58.3264L80.6993 76.7228C80.6993 76.7228 71.3687 87.3576 63.7415 91.0668C56.1143 94.776 49.5359 74.3248 57.287 67.0824L57.2902 67.078Z" fill="#FFD200"/>
<path d="M44.6354 71.8519C44.6354 71.8519 36.9065 71.5527 30.1374 73.4227C23.3683 75.2927 23.8831 89.2539 28.8122 97.5523C33.7412 105.855 36.7476 127.912 46.4214 127.97C56.0952 128.027 63.7892 129.329 66.8654 119.57C69.9449 109.811 71.7882 102.076 71.5466 87.0847C71.3019 72.0939 68.5625 67.6983 64.7807 65.6039C61.0021 63.5095 53.1842 68.8027 44.6354 71.8475V71.8519Z" fill="#FFD200"/>
<path d="M49.5518 53.7019C49.5518 53.7019 50.8802 58.0975 51.0263 61.3491C51.0867 62.6691 50.3494 63.8219 49.396 63.8835C48.2106 63.9627 46.5962 63.5931 45.6746 61.3535L43.7773 57.8247C43.7773 57.8247 42.646 55.5543 44.0665 52.8967C45.4903 50.2347 48.8367 50.9695 49.5486 53.7019H49.5518Z" fill="#F4A28C"/>
<path d="M43.4436 56.9844L44.4828 72.9256L53.0189 76.7712L46.7297 58.3396L43.4436 56.9844Z" fill="#F4A28C"/>
<path d="M49.485 51.4843C49.485 51.4843 51.8526 52.2807 50.7276 53.9219C50.0189 54.9515 47.2064 53.9087 47.2064 53.9087C47.2064 53.9087 46.3896 54.9251 45.4744 54.7447C44.5591 54.5643 44.3621 54.9427 44.3621 54.9427C44.3621 54.9427 45.5252 60.6275 43.7138 61.1555L42.6428 57.9919L42.6269 56.6191C42.6269 56.6191 41.6735 56.6851 41.4447 55.5103C41.2159 54.3355 42.0993 53.9747 42.0993 53.9747C42.0993 53.9747 41.0156 53.1563 41.683 51.9111C42.3504 50.6659 43.1544 51.2555 43.1544 51.2555C43.1544 51.2555 42.6841 48.7079 43.9044 48.0699C45.1248 47.4319 45.7731 49.2887 45.7731 49.2887C45.7731 49.2887 45.4585 47.6167 46.7074 47.2471C47.9564 46.8775 47.9786 49.0951 47.9786 49.0951C47.9786 49.0951 48.5475 47.2603 49.6852 47.8015C50.8229 48.3427 50.8452 50.9123 49.4786 51.4975L49.485 51.4843Z" fill="#24285B"/>
<g opacity="0.1">
<path d="M48.6142 63.8615C48.6142 63.8615 46.4945 63.7691 45.6746 61.3535C45.6746 61.3535 45.3695 66.4619 49.4183 66.2155L48.6142 63.8615Z" fill="#000001"/>
</g>
<path d="M61.413 9.94706L25.1798 15.5031C23.0864 15.8241 21.5773 18.4339 21.8092 21.3323L23.6493 44.3356C23.8812 47.2339 25.7662 49.3233 27.8595 49.0023L64.0927 43.4462C66.1861 43.1252 67.6952 40.5154 67.4633 37.6171L65.6232 14.6137C65.3913 11.7154 63.5064 9.62605 61.413 9.94706Z" fill="#24285B"/>
<path d="M30.8874 30.3072C32.8374 30.3072 34.4182 28.1186 34.4182 25.4188C34.4182 22.719 32.8374 20.5304 30.8874 20.5304C28.9374 20.5304 27.3567 22.719 27.3567 25.4188C27.3567 28.1186 28.9374 30.3072 30.8874 30.3072Z" fill="#FFD200"/>
<path d="M56.0236 20.1686L38.9351 22.789C38.3856 22.8732 37.9895 23.5583 38.0503 24.3191C38.1112 25.0799 38.606 25.6284 39.1555 25.5441L56.244 22.9237C56.7935 22.8395 57.1896 22.1544 57.1287 21.3936C57.0679 20.6328 56.5731 20.0843 56.0236 20.1686Z" fill="white"/>
<g opacity="0.1">
<path d="M59.5962 29.892L30.1696 34.4015C29.1769 34.5536 28.4614 35.791 28.5714 37.1653L28.8581 40.7469C28.9681 42.1212 29.862 43.112 30.8546 42.9599L60.2813 38.4504C61.2739 38.2983 61.9894 37.0609 61.8794 35.6866L61.5927 32.1049C61.4827 30.7306 60.5889 29.7398 59.5962 29.892Z" fill="white"/>
</g>
<path d="M37.6184 72.1116L15.7443 65.6216L23.5145 40.1016L22.3577 27.522C22.1956 25.7576 20.4223 25.476 19.9901 27.148C19.3735 29.5416 19.0494 32.956 19.936 37.4748C20.1776 38.7112 3.21027 59.4924 5.15838 73.6472C7.10649 87.802 35.8292 98.5864 35.8292 98.5864L37.6152 72.1116H37.6184Z" fill="#F4A28C"/>
<path d="M39.8048 71.9444L20.8195 66.8756L14.8958 88.1408L37.6184 104.029L39.8048 71.9444Z" fill="#FFD200"/>
<g opacity="0.1">
<path d="M14.8957 88.1408L17.0123 80.5376L33.0707 92.4132C33.0707 92.4132 39.2455 107.875 42.5951 114.167C45.9447 120.459 47.9214 125.84 55.9649 127.943C55.9649 127.943 48.5411 128.361 46.4182 127.97C46.4182 127.97 43.8536 128.41 41.0029 125.22C41.0029 125.22 38.2858 122.712 35.8006 115.764C35.8006 115.764 30.9351 100.637 29.1077 98.076L14.8926 88.1364L14.8957 88.1408Z" fill="#000001"/>
</g>
<g opacity="0.58">
<path d="M21.8269 193.323C21.8269 193.323 17.3364 191.624 16.3608 185.838C16.3608 185.838 23.3174 183.894 23.5176 193.833L21.8301 193.323H21.8269Z" fill="#9747FF"/>
</g>
<g opacity="0.73">
<path d="M22.3767 192.702C22.3767 192.702 19.2401 185.834 22.0017 179.414C22.0017 179.414 27.2931 184.065 24.9414 192.715L22.3767 192.702Z" fill="#9747FF"/>
</g>
<path d="M23.1839 192.711C23.1839 192.711 24.8429 185.46 29.8514 184.087C29.8514 184.087 30.7921 188.795 26.6066 192.733L23.1839 192.711Z" fill="#9747FF"/>
<path d="M19.9297 192.544L20.8386 201.168L26.5717 201.203L27.417 192.588L19.9297 192.544Z" fill="#24285B"/>
<path d="M74.6483 79.3981H46.8187C44.4878 79.3981 42.5983 82.0142 42.5983 85.2413V94.8553C42.5983 98.0824 44.4878 100.698 46.8187 100.698H74.6483C76.9792 100.698 78.8687 98.0824 78.8687 94.8553V85.2413C78.8687 82.0142 76.9792 79.3981 74.6483 79.3981Z" fill="#9747FF"/>
<path d="M100.285 99.5764L80.9185 128.916L65.448 100.698C65.448 100.698 64.9078 95.106 62.4194 92.7652C59.931 90.4244 61.9872 100.698 61.9872 100.698H54.6302C54.6302 100.698 53.378 104.843 61.9586 107.276C61.9586 107.276 72.589 146.005 78.8623 148.17C85.1357 150.335 98.8773 139.55 98.8773 139.55L100.285 99.5764Z" fill="#F4A28C"/>
<path d="M100.285 99.5764L84.4874 120.437L94.8953 142.388L107.639 133.558L100.285 99.5764Z" fill="#24285B"/>
<g opacity="0.1">
<path d="M100.285 99.5764L84.4874 120.437L94.8953 142.388L107.639 133.558L100.285 99.5764Z" fill="#000001"/>
</g>
<path d="M118.368 91.9908C118.368 91.9908 132.605 90.4728 140.639 106.005C148.673 121.537 135.04 156.926 135.04 156.926H98.7693C98.7693 156.926 78.0837 92.444 118.368 91.9952V91.9908Z" fill="#24285B"/>
<path d="M150.78 142.388H78.8878C76.8272 142.388 75.1568 144.701 75.1568 147.554V196.033C75.1568 198.886 76.8272 201.199 78.8878 201.199H150.78C152.841 201.199 154.511 198.886 154.511 196.033V147.554C154.511 144.701 152.841 142.388 150.78 142.388Z" fill="#E6E6E6"/>
<path d="M89.5086 145.636C89.5086 145.636 95.3625 138.081 98.7693 136.55C102.176 135.018 98.7693 145.636 98.7693 145.636H89.5086Z" fill="#E6E6E6"/>
<path d="M106.74 77.3257L105.38 78.2849C105.043 78.5225 105.001 79.1605 105.297 79.4817L106.282 80.5421L106.737 77.3257H106.74Z" fill="#F4A28C"/>
<path d="M107.897 74.426C107.897 74.426 105.939 78.7424 105.376 82.1392C105.148 83.5164 105.78 84.9112 106.778 85.206C108.017 85.5756 109.768 85.5756 111.02 83.4372L113.468 80.1724C113.468 80.1724 114.948 78.0516 113.782 74.9012C112.616 71.7508 108.996 71.7156 107.9 74.426H107.897Z" fill="#F4A28C"/>
<path d="M111.999 77.3257L118.368 91.9909L112.752 102.771L109.781 81.3693L111.999 77.3257Z" fill="#F4A28C"/>
<path d="M107.464 71.8652C107.464 71.8652 106.644 71.8036 106.867 73.5636C107.089 75.3236 108.828 74.8088 108.828 74.8088C108.828 74.8088 108.955 76.8152 110.232 76.956C111.51 77.0968 111.647 78.1968 111.647 78.1968C111.647 78.1968 111.415 79.7104 110.49 80.6256C109.565 81.5408 106.625 79.1472 105.662 79.8688C104.699 80.5904 104.382 84.2072 105.586 85.206C106.791 86.2092 109.215 86.0948 110.305 84.9904C111.395 83.886 113.194 81.158 113.194 81.158C113.194 81.158 114.85 79.0812 115.196 77.3212C115.543 75.5612 114.564 74.7384 114.564 74.7384C114.564 74.7384 114.57 72.0324 113.89 70.9808C113.21 69.9292 112.18 70.5848 112.18 70.5848C112.18 70.5848 111.945 67.9228 110.89 67.5708C109.835 67.2188 109.441 69.718 109.441 69.718C109.441 69.718 108.818 68.8248 107.849 69.3C106.88 69.7752 107.108 71.1964 107.461 71.8564L107.464 71.8652Z" fill="#24285B"/>
<path d="M141.052 107.294C143.442 113.142 145.387 122.39 144.25 136.497L133.092 138.349C133.092 138.349 127.931 124.507 127.314 113.106C126.729 102.3 137.198 97.8604 141.052 107.29V107.294Z" fill="#24285B"/>
<path d="M139.934 142.388C144.428 142.388 146.137 134.262 142.346 130.922C141.679 130.337 140.951 129.782 140.153 129.29C133.095 124.907 116.299 139.405 116.299 139.405C116.299 139.405 107.096 131.274 105.16 138.921C104.731 140.62 105.662 142.393 106.962 142.393H139.937L139.934 142.388Z" fill="#F4A28C"/>
<path d="M55.7584 84.8057C55.2721 84.8057 54.8272 85.0169 54.4363 85.4393C54.0613 85.8441 53.8103 86.3545 53.6609 86.7285C53.5147 86.3545 53.2636 85.8441 52.8855 85.4393C52.4914 85.0169 52.0465 84.8057 51.5634 84.8057C50.2064 84.8057 49.1863 86.3413 49.1863 88.3785C49.1863 90.5785 50.4607 92.0833 52.3929 94.3581C52.7202 94.7453 53.092 95.1853 53.4797 95.6517C53.5306 95.7133 53.5973 95.7485 53.6641 95.7485C53.7308 95.7485 53.7975 95.7133 53.8484 95.6517C54.2361 95.1853 54.6048 94.7453 54.9353 94.3581C56.8643 92.0789 58.1419 90.5741 58.1419 88.3785C58.1419 86.3413 57.1185 84.8057 55.7647 84.8057H55.7584Z" fill="white"/>
<path d="M71.5593 89.9536C71.5593 86.8604 69.7479 84.348 67.5106 84.348C65.2732 84.348 63.4618 86.856 63.4618 89.9536C63.4618 93.0512 65.2732 95.5592 67.5106 95.5592C68.2733 95.5592 68.9851 95.26 69.5953 94.754C70.1864 95.2688 70.9428 95.832 71.3305 95.744C71.7246 95.6516 71.232 94.4152 70.7267 93.346C71.2447 92.4044 71.5561 91.234 71.5561 89.958L71.5593 89.9536Z" fill="white"/>
<path d="M91.4472 172.234C95.291 172.234 98.407 167.919 98.407 162.598C98.407 157.276 95.291 152.962 91.4472 152.962C87.6034 152.962 84.4874 157.276 84.4874 162.598C84.4874 167.919 87.6034 172.234 91.4472 172.234Z" fill="#A5A5A5"/>
<g opacity="0.1">
<path d="M140.404 158.765H108.783C107.655 158.765 106.74 160.031 106.74 161.592C106.74 163.154 107.655 164.419 108.783 164.419H140.404C141.533 164.419 142.448 163.154 142.448 161.592C142.448 160.031 141.533 158.765 140.404 158.765Z" fill="#000001"/>
</g>
<g opacity="0.1">
<path d="M143.109 179.419H88.5616C86.6853 179.419 85.1643 181.525 85.1643 184.123V186.402C85.1643 188.999 86.6853 191.105 88.5616 191.105H143.109C144.985 191.105 146.506 188.999 146.506 186.402V184.123C146.506 181.525 144.985 179.419 143.109 179.419Z" fill="#000001"/>
</g>
<path d="M134.741 85.0081C134.627 85.0081 134.509 84.9509 134.42 84.8321C134.226 84.5857 134.213 84.1677 134.391 83.8993C134.391 83.8949 134.696 83.4373 135.151 82.5749C135.307 82.2801 135.605 82.2141 135.818 82.4297C136.031 82.6453 136.079 83.0589 135.923 83.3537C135.434 84.2821 135.11 84.7705 135.097 84.7925C135.002 84.9333 134.874 85.0081 134.747 85.0081H134.741ZM137.217 79.8953C137.14 79.8953 137.064 79.8689 136.991 79.8161C136.759 79.6445 136.673 79.2441 136.797 78.9229C136.991 78.4213 137.182 77.9021 137.36 77.3785C137.474 77.0485 137.757 76.9077 137.995 77.0661C138.234 77.2245 138.335 77.6161 138.221 77.9461C138.033 78.4873 137.84 79.0285 137.636 79.5477C137.55 79.7677 137.385 79.8953 137.217 79.8953ZM138.977 74.2457C138.926 74.2457 138.876 74.2325 138.825 74.2105C138.574 74.0961 138.44 73.7221 138.526 73.3745C138.659 72.8333 138.783 72.2745 138.895 71.7245C138.968 71.3725 139.228 71.1701 139.483 71.2713C139.737 71.3725 139.883 71.7377 139.81 72.0853C139.692 72.6573 139.562 73.2337 139.425 73.7969C139.359 74.0741 139.174 74.2457 138.974 74.2457H138.977ZM140.045 68.2705C140.02 68.2705 139.994 68.2705 139.969 68.2617C139.708 68.2045 139.533 67.8657 139.575 67.5049C139.641 66.9417 139.699 66.3653 139.746 65.7933C139.778 65.4325 140.013 65.1729 140.274 65.2125C140.534 65.2565 140.722 65.5821 140.693 65.9429C140.643 66.5369 140.585 67.1353 140.515 67.7161C140.477 68.0417 140.274 68.2705 140.045 68.2705ZM140.401 62.1369C140.137 62.1369 139.924 61.8421 139.924 61.4769V61.4109C139.924 60.8565 139.915 60.2933 139.899 59.7433C139.886 59.3781 140.093 59.0701 140.353 59.0569C140.62 59.0437 140.84 59.3253 140.849 59.6861C140.865 60.2581 140.875 60.8345 140.875 61.4109V61.4769C140.875 61.8421 140.662 62.1369 140.398 62.1369H140.401ZM140.07 55.9989C139.838 55.9989 139.635 55.7657 139.6 55.4357C139.54 54.8681 139.47 54.2917 139.39 53.7285C139.343 53.3721 139.511 53.0245 139.769 52.9585C140.029 52.8925 140.277 53.1257 140.325 53.4821C140.404 54.0629 140.477 54.6569 140.541 55.2421C140.579 55.6029 140.401 55.9373 140.14 55.9901C140.118 55.9945 140.093 55.9989 140.07 55.9989ZM139.117 49.9885C138.911 49.9885 138.72 49.7993 138.659 49.5133C138.545 48.9677 138.421 48.4089 138.288 47.8545C138.205 47.5069 138.342 47.1373 138.593 47.0229C138.844 46.9085 139.114 47.0977 139.193 47.4453C139.327 48.0129 139.457 48.5849 139.575 49.1481C139.648 49.5001 139.502 49.8653 139.251 49.9665C139.206 49.9841 139.162 49.9929 139.117 49.9929V49.9885ZM137.458 44.2993C137.296 44.2993 137.137 44.1849 137.048 43.9737C136.842 43.4897 136.619 43.0101 136.381 42.5525C136.228 42.2577 136.276 41.8441 136.489 41.6329C136.702 41.4217 137.001 41.4877 137.153 41.7825C137.407 42.2753 137.649 42.7857 137.868 43.3049C138.002 43.6173 137.925 44.0221 137.7 44.2069C137.623 44.2685 137.541 44.2993 137.458 44.2993ZM134.652 39.5561C134.538 39.5561 134.423 39.4989 134.331 39.3845C134.032 39.0061 133.715 38.6365 133.387 38.2801C133.181 38.0557 133.142 37.6421 133.308 37.3517C133.47 37.0657 133.772 37.0173 133.978 37.2417C134.325 37.6157 134.658 38.0117 134.976 38.4077C135.17 38.6541 135.186 39.0721 135.008 39.3405C134.913 39.4813 134.785 39.5561 134.655 39.5561H134.652ZM131.032 36.0009C130.953 36.0009 130.873 35.9745 130.8 35.9173C130.448 35.6445 130.076 35.3761 129.698 35.1165C129.462 34.9537 129.364 34.5621 129.481 34.2321C129.599 33.9021 129.885 33.7701 130.12 33.9329C130.514 34.2013 130.899 34.4829 131.267 34.7645C131.496 34.9405 131.579 35.3453 131.452 35.6621C131.366 35.8777 131.201 36.0009 131.035 36.0009H131.032ZM126.98 33.4753C126.926 33.4753 126.872 33.4621 126.818 33.4357C126.437 33.2465 126.036 33.0573 125.63 32.8769C125.379 32.7669 125.242 32.3929 125.321 32.0453C125.401 31.6977 125.671 31.5085 125.922 31.6185C126.338 31.8033 126.748 31.9969 127.142 32.1949C127.39 32.3181 127.517 32.6965 127.428 33.0397C127.359 33.3081 127.174 33.4753 126.98 33.4753ZM122.712 31.7417C122.677 31.7417 122.639 31.7373 122.604 31.7241C122.194 31.5921 121.784 31.4689 121.374 31.3501C121.117 31.2753 120.952 30.9277 121.003 30.5713C121.057 30.2149 121.311 29.9861 121.565 30.0565C121.985 30.1753 122.404 30.3029 122.82 30.4393C123.078 30.5229 123.237 30.8793 123.176 31.2313C123.125 31.5349 122.928 31.7417 122.712 31.7417ZM118.336 30.6065C118.314 30.6065 118.292 30.6065 118.266 30.5977C117.847 30.5141 117.43 30.4349 117.014 30.3645C116.754 30.3205 116.566 29.9905 116.598 29.6297C116.63 29.2689 116.874 29.0137 117.129 29.0533C117.551 29.1237 117.974 29.2029 118.4 29.2909C118.66 29.3437 118.841 29.6781 118.803 30.0389C118.768 30.3689 118.565 30.6065 118.333 30.6065H118.336ZM100.301 30.1313C100.18 30.1313 100.047 30.0741 99.9611 29.9641L100.279 29.4713L100.234 28.8157L100.524 28.7761C100.778 28.7409 101.019 29.0049 101.045 29.3701C101.07 29.7309 100.879 30.0565 100.616 30.0917L100.355 30.1269C100.336 30.1269 100.32 30.1269 100.301 30.1269V30.1313ZM113.912 29.9421C113.912 29.9421 113.887 29.9421 113.874 29.9421C113.448 29.8981 113.029 29.8585 112.613 29.8277C112.349 29.8057 112.149 29.4933 112.165 29.1325C112.18 28.7673 112.39 28.4901 112.667 28.5121C113.089 28.5473 113.515 28.5869 113.944 28.6309C114.208 28.6573 114.402 28.9741 114.383 29.3393C114.364 29.6869 114.154 29.9509 113.909 29.9509L113.912 29.9421ZM103.743 29.7837C103.492 29.7837 103.279 29.5109 103.266 29.1545C103.253 28.7893 103.457 28.4813 103.717 28.4637C104.115 28.4373 104.544 28.4109 104.995 28.3889C105.262 28.3713 105.478 28.6617 105.488 29.0269C105.497 29.3921 105.291 29.6957 105.027 29.7089C104.579 29.7309 104.156 29.7529 103.765 29.7837C103.756 29.7837 103.749 29.7837 103.74 29.7837H103.743ZM109.463 29.6605H109.454C109.022 29.6517 108.599 29.6429 108.189 29.6429C107.925 29.6429 107.712 29.3481 107.712 28.9829C107.712 28.6177 107.925 28.3229 108.189 28.3229C108.605 28.3229 109.031 28.3317 109.47 28.3405C109.733 28.3449 109.943 28.6485 109.937 29.0137C109.934 29.3745 109.721 29.6605 109.46 29.6605H109.463Z" fill="#E6E6E6"/>
<path d="M93.4589 22.858L90.5192 34.782L78.8687 30.3072L93.4589 22.858Z" fill="#9747FF"/>
<path d="M78.8687 30.3072L92.4197 27.0776L93.926 32.8724L91.0055 31.9704L91.7046 29.9728L78.8687 30.3072Z" fill="#24285B"/>
</svg>
