<svg width="160" height="220" viewBox="0 0 160 220" fill="none" xmlns="http://www.w3.org/2000/svg">
<path opacity="0.03" d="M84.2572 203.047C121.777 203.047 152.193 195.212 152.193 185.548C152.193 175.884 121.777 168.049 84.2572 168.049C46.7372 168.049 16.3213 175.884 16.3213 185.548C16.3213 195.212 46.7372 203.047 84.2572 203.047Z" fill="#000001"/>
<path d="M133.138 163.016H116.063V175.674H133.138V163.016Z" fill="#E6E6E6"/>
<path d="M142.837 171.054H116.063V177.184H142.837V171.054Z" fill="#A5A5A5"/>
<path opacity="0.58" d="M26.9008 169.651C26.9008 169.651 22.0099 167.803 20.9453 161.498C20.9453 161.498 28.5248 159.377 28.7409 170.21L26.9008 169.651Z" fill="#9747FF"/>
<path opacity="0.73" d="M27.4983 168.978C27.4983 168.978 24.082 161.498 27.0883 154.502C27.0883 154.502 32.8532 159.57 30.2918 168.995L27.4983 168.978Z" fill="#9747FF"/>
<path d="M28.3818 168.982C28.3818 168.982 30.1869 161.08 35.6467 159.584C35.6467 159.584 36.67 164.714 32.1127 169.004L28.3818 168.982Z" fill="#9747FF"/>
<path d="M24.832 168.806L25.8235 178.2L32.0683 178.235L32.9899 168.854L24.832 168.806Z" fill="#24285B"/>
<path d="M68.2846 91.5508C68.2846 91.5508 52.8777 92.8532 46.9985 107.448C41.1192 122.043 38.0778 173.122 50.6468 185.473C63.2158 197.824 109.436 197.261 118.557 180.704C127.678 164.142 110.984 152.724 109.503 136.052C108.022 119.376 108.626 82.1128 68.2846 91.5552V91.5508Z" fill="#FFD200"/>
<path opacity="0.09" d="M51.6224 124.428C51.6224 124.428 47.6055 162.417 57.7941 171.948C67.9796 181.474 85.468 183.159 85.468 183.159L90.4988 193.582C90.4988 193.582 98.6313 192.553 102.187 191.382L97.1694 184.03C97.1694 184.03 106.147 184.417 105.61 175.578C105.073 166.738 99.4321 160.89 102.559 148.975C105.683 137.056 97.7701 118.325 97.7701 118.325L88.3505 109.921L51.6193 124.428H51.6224Z" fill="#000001"/>
<path d="M79.0263 172.788C79.0263 172.788 79.8875 178.332 86.682 176.273C93.4734 174.209 83.8949 167.16 83.8949 167.16L79.0263 172.792V172.788Z" fill="#9747FF"/>
<path opacity="0.09" d="M79.0263 172.788C79.0263 172.788 79.8875 178.332 86.682 176.273C93.4734 174.209 83.8949 167.16 83.8949 167.16L79.0263 172.792V172.788Z" fill="#000001"/>
<path d="M96.4893 158.448C96.4893 158.448 106.834 157.894 109.503 167.367C112.173 176.84 98.7743 180.849 91.1916 177.052C83.6089 173.254 80.2434 162.527 80.2434 162.527L89.0147 157.947L96.4861 158.448H96.4893Z" fill="#24285B"/>
<path opacity="0.09" d="M96.4893 158.448C96.4893 158.448 106.834 157.894 109.503 167.367C112.173 176.84 98.7743 180.849 91.1916 177.052C83.6089 173.254 80.2434 162.527 80.2434 162.527L89.0147 157.947L96.4861 158.448H96.4893Z" fill="#000001"/>
<path d="M96.1429 100.329C96.1429 100.329 103.551 100.808 106.742 113.291C109.932 125.774 112.236 153.01 107.361 154.854C102.486 156.693 94.9543 123.565 94.9543 123.565L96.1429 100.333V100.329Z" fill="#F4A28C"/>
<path d="M77.7996 87.4543C77.7996 87.4543 76.932 96.2015 75.3843 98.2167H83.6089C83.6089 98.2167 80.9426 94.5515 81.1905 86.8691L77.8027 87.4543H77.7996Z" fill="#F4A28C"/>
<path opacity="0.09" d="M77.7996 87.4543C77.7996 87.4543 76.932 96.2015 75.3843 98.2167H83.6089C83.6089 98.2167 80.9426 94.5515 81.1905 86.8691L77.8027 87.4543H77.7996Z" fill="#000001"/>
<path d="M75.5209 80.3572C75.5209 80.3572 75.2317 90.8644 79.2042 91.52C83.1767 92.18 82.2265 80.2076 82.2265 80.2076C82.2265 80.2076 82.4458 74.3117 80.1068 73.7309C77.7709 73.1501 74.6978 72.8421 75.5209 80.3572Z" fill="#F4A28C"/>
<path d="M75.5718 82.7859C75.5718 82.7859 73.5029 82.0863 73.6745 83.5339C73.8461 84.9815 73.5887 86.9483 75.9055 85.8879L75.5718 82.7815V82.7859Z" fill="#F4A28C"/>
<path d="M82.2011 82.0512C82.2011 82.0512 84.2127 81.0876 84.1396 82.5528C84.0666 84.018 84.4574 85.9408 82.0771 85.1884L82.1979 82.0556L82.2011 82.0512Z" fill="#F4A28C"/>
<path d="M101.418 133.795H110.704C110.704 133.795 110.336 101.385 95.0497 99.7348C79.7635 98.0848 101.422 133.795 101.422 133.795H101.418Z" fill="#9747FF"/>
<path opacity="0.44" d="M101.418 133.795H110.704C110.704 133.795 110.336 101.385 95.0497 99.7348C79.7635 98.0848 101.422 133.795 101.422 133.795H101.418Z" fill="white"/>
<path d="M57.8767 142.828C55.6744 136.528 54.3555 129.668 54.222 122.672C54.2125 122.135 54.2061 121.603 54.2093 121.066C54.2379 111.346 56.1574 99.1145 65.5643 98.7141C81.2413 98.0453 100.954 95.3612 103.738 109.613C106.525 123.869 96.4893 158.453 96.4893 158.453L63.4573 158.809L57.8767 142.828Z" fill="#9747FF"/>
<path opacity="0.09" d="M54.7083 113.291C54.7083 113.291 58.1723 145.336 73.665 147.84C89.1577 150.344 101.418 138.107 101.418 138.107L96.4893 158.453L63.4573 158.809L57.4096 141.442C57.4096 141.442 52.5885 127.182 54.7051 113.287L54.7083 113.291Z" fill="#000001"/>
<path d="M104.345 154.999C107.577 157.52 110.994 152.117 108.82 147.954C107.924 146.234 106.837 144.333 105.661 142.666C102.553 138.252 90.5687 126.848 90.5687 126.848L87.6736 131.349C87.6736 131.349 92.574 138.085 95.5041 142.534C97.287 145.235 100.71 152.165 104.342 154.994L104.345 154.999Z" fill="#F4A28C"/>
<path d="M93.5647 118.345L87.149 117.289L85.843 132.498L92.2587 133.554L93.5647 118.345Z" fill="#FFD200"/>
<path d="M70.9669 110.647C71.415 99.638 60.3937 95.5636 56.2877 105.006C54.4254 109.292 53.0176 115.174 52.6807 123.257C51.4413 152.86 56.7581 161.801 63.1395 159.905C69.5209 158.013 85.2774 132.981 85.2774 132.981C85.2774 132.981 91.3251 129.73 88.0454 123.257C84.7657 116.785 82.7477 128.81 82.7477 128.81C82.7477 128.81 65.4658 148.223 65.2687 140.62C65.1766 137.069 70.1883 129.941 70.97 110.647H70.9669Z" fill="#F4A28C"/>
<path d="M74.7836 82.6276L74.0432 79.222C73.8557 78.3552 73.4552 77.5808 72.88 77.1496C72.3811 76.7756 71.8599 75.9924 72.0442 74.3556C72.3779 71.412 74.8345 73.5284 74.504 71.1348C74.1703 68.7412 76.4966 66.902 77.4277 67.8216C78.3589 68.7412 79.29 71.0424 79.9542 69.5684C80.6184 68.0944 82.2805 67.7292 83.11 69.1988C83.9394 70.6684 82.2805 73.0268 83.11 73.458C83.9394 73.8892 86.1354 74.7208 85.271 76.6524C85.0263 77.198 84.7276 77.528 84.4193 77.726C83.3579 78.408 82.5475 79.662 82.3155 81.2504L82.2011 82.0468C82.2011 82.0468 81.8801 79.2308 81.2826 77.572C80.6852 75.9132 76.6301 75.2708 76.2296 76.8372C75.8292 78.4036 75.5686 82.7816 75.5686 82.7816L74.7805 82.6232L74.7836 82.6276Z" fill="#24285B"/>
<path d="M51.8385 131.23L67.9224 134.913C67.9224 134.913 76.9606 105.6 66.7274 99.7347C56.4911 93.8695 50.3767 111.72 51.8385 131.23Z" fill="#9747FF"/>
<path opacity="0.44" d="M51.8385 131.23L67.9224 134.913C67.9224 134.913 76.9606 105.6 66.7274 99.7347C56.4911 93.8695 50.3767 111.72 51.8385 131.23Z" fill="white"/>
<path d="M63.1395 159.905L78.3462 154.884C84.1365 152.97 90.1174 156.825 92.7901 164.19L101.418 186.947L96.1048 191.382L86.6789 176.273C84.788 173.241 81.8388 171.864 79.0231 172.788C73.1343 174.728 63.292 175.604 63.1363 159.905H63.1395Z" fill="#24285B"/>
<path d="M97.7732 189.992L98.9999 192.707C99.5148 193.846 100.665 194.022 101.345 193.059L105.175 187.638C106.103 186.327 105.47 184.065 104.148 184.034C102.467 183.995 100.176 185.152 97.7732 189.992Z" fill="#9747FF"/>
<path d="M62.5516 49.9972L95.7647 49.9972V16.9576L62.5516 16.9576V49.9972Z" fill="#24285B"/>
<path d="M76.8462 29.4756H70.9955V41.3468H76.8462V29.4756Z" fill="#9747FF"/>
<path d="M76.8462 30.7253C76.8462 30.7253 79.9956 30.9717 80.5295 26.6949L80.8473 24.1605C80.9934 23.0033 82.0136 22.5149 82.6333 23.3201C82.9988 23.7953 83.2943 24.5213 83.3324 25.6301C83.4405 28.7585 82.3123 29.8321 84.6291 30.7341C86.9458 31.6361 88.1344 32.4589 87.896 34.8437C87.6577 37.2285 85.5793 36.8985 85.5793 38.2977C85.5793 39.6969 84.985 41.9981 81.4193 41.1753C77.8536 40.3525 76.843 40.4361 76.843 40.4361V30.7253H76.8462Z" fill="white"/>
<path opacity="0.07" d="M73.6936 34.9096C74.3096 34.9096 74.8091 34.2182 74.8091 33.3652C74.8091 32.5123 74.3096 31.8208 73.6936 31.8208C73.0775 31.8208 72.5781 32.5123 72.5781 33.3652C72.5781 34.2182 73.0775 34.9096 73.6936 34.9096Z" fill="white"/>
<path d="M116.291 114.695H155.632V81.9456H116.291V114.695Z" fill="#24285B"/>
<path d="M147.722 98.9955H147.652V95.2643C147.652 93.3943 146.584 91.8763 145.249 91.7883C145.424 91.5859 145.535 91.2823 145.535 90.9435C145.535 90.3275 145.176 89.8303 144.731 89.8303C144.286 89.8303 143.927 90.3275 143.927 90.9435C143.927 91.2867 144.042 91.5859 144.216 91.7927C142.888 91.8939 141.833 93.4031 141.833 95.2643V98.9955C141.331 98.9955 140.921 99.5631 140.921 100.258V100.65C140.921 101.345 141.331 101.913 141.833 101.913H147.728C148.23 101.913 148.64 101.345 148.64 100.65V100.258C148.64 99.5631 148.23 98.9955 147.728 98.9955H147.722Z" fill="#FFD200"/>
<path d="M143.644 102.643C143.59 102.828 143.559 103.03 143.559 103.242C143.559 104.135 144.083 104.861 144.728 104.861C145.373 104.861 145.898 104.135 145.898 103.242C145.898 103.03 145.866 102.828 145.812 102.643H143.641H143.644Z" fill="#FFD200"/>
<path d="M135.579 92.026H123.318V95.9068H135.579V92.026Z" fill="white"/>
<path opacity="0.28" d="M135.579 99.286H123.318V103.167H135.579V99.286Z" fill="white"/>
<path d="M24.2599 62.1059C24.2313 62.1059 24.2059 62.1015 24.1773 62.0883C24.0279 62.0267 23.9421 61.8067 23.9898 61.5999C23.9962 61.5647 24.1805 60.7331 24.6476 59.3559C24.7144 59.1623 24.8828 59.0743 25.0258 59.1667C25.1688 59.2591 25.2292 59.4923 25.1625 59.6903C24.7144 61.0103 24.5364 61.8199 24.5332 61.8287C24.4951 61.9959 24.3839 62.1059 24.2631 62.1059H24.2599ZM27.8956 53.2575C27.8352 53.2575 27.7748 53.2311 27.7208 53.1739C27.5968 53.0419 27.5746 52.7955 27.6699 52.6239C28.0163 52.0079 28.385 51.3919 28.7631 50.7935C28.8648 50.6307 29.046 50.6131 29.1636 50.7583C29.2812 50.9035 29.2939 51.1499 29.189 51.3127C28.8172 51.9023 28.4549 52.5051 28.1148 53.1123C28.0576 53.2091 27.975 53.2619 27.8924 53.2619L27.8956 53.2575ZM33.082 46.0415C32.9994 46.0415 32.9168 45.9931 32.8596 45.8919C32.7611 45.7247 32.7833 45.4739 32.9041 45.3419C33.3426 44.8579 33.8034 44.3739 34.2706 43.9075C34.3977 43.7799 34.5757 43.8195 34.6679 43.9955C34.76 44.1715 34.7314 44.4179 34.6043 44.5455C34.1435 45.0031 33.6922 45.4783 33.26 45.9535C33.2092 46.0107 33.1456 46.0415 33.0852 46.0415H33.082ZM39.2791 40.5635C39.1742 40.5635 39.0757 40.4843 39.0249 40.3479C38.955 40.1543 39.009 39.9167 39.1488 39.8199C39.6478 39.4723 40.1626 39.1291 40.6901 38.7947C40.8332 38.7067 41.0016 38.7947 41.0651 38.9883C41.1287 39.1863 41.0651 39.4195 40.9253 39.5075C40.4009 39.8375 39.8956 40.1763 39.4031 40.5195C39.3617 40.5459 39.3173 40.5635 39.2759 40.5635H39.2791ZM46.1054 36.7707C45.9847 36.7707 45.8734 36.6607 45.8353 36.4935C45.7908 36.2867 45.8734 36.0667 46.0228 36.0051C46.5567 35.7763 47.1033 35.5563 47.6658 35.3451C47.8152 35.2879 47.9741 35.4111 48.0122 35.6223C48.0504 35.8335 47.9646 36.0491 47.812 36.1019C47.2591 36.3087 46.7188 36.5287 46.1881 36.7531C46.1595 36.7663 46.1309 36.7707 46.1054 36.7707ZM53.2718 34.4695C53.1352 34.4695 53.0144 34.3331 52.9921 34.1395C52.9667 33.9239 53.0716 33.7259 53.2273 33.6907C53.7803 33.5675 54.3428 33.4487 54.918 33.3431C55.0737 33.3035 55.2167 33.4663 55.2358 33.6775C55.2549 33.8887 55.1468 34.0911 54.9943 34.1175C54.4254 34.2231 53.8693 34.3375 53.3195 34.4607C53.3036 34.4607 53.2877 34.4651 53.275 34.4651L53.2718 34.4695Z" fill="#E6E6E6"/>
<path d="M136.192 68.1516C136.071 68.1516 135.96 68.046 135.922 67.8788C135.753 67.144 135.566 66.4048 135.366 65.6832C135.308 65.4808 135.382 65.252 135.528 65.1772C135.674 65.098 135.836 65.1992 135.893 65.4016C136.097 66.1364 136.287 66.8888 136.462 67.6412C136.51 67.848 136.427 68.068 136.278 68.134C136.249 68.1472 136.221 68.1516 136.192 68.1516ZM133.093 58.9424C132.998 58.9424 132.906 58.8764 132.852 58.762C132.556 58.1108 132.239 57.464 131.911 56.8304C131.819 56.6544 131.851 56.408 131.978 56.2848C132.105 56.1572 132.283 56.1968 132.372 56.3772C132.706 57.0196 133.027 57.684 133.329 58.3484C133.411 58.5332 133.373 58.7752 133.24 58.8896C133.192 58.9292 133.141 58.9512 133.087 58.9512L133.093 58.9424ZM128.441 51.0708C128.371 51.0708 128.298 51.0356 128.244 50.9608C127.843 50.424 127.427 49.896 127.001 49.3812C126.884 49.2404 126.871 48.9896 126.976 48.8268C127.081 48.664 127.259 48.6464 127.376 48.7916C127.808 49.3152 128.231 49.852 128.638 50.3976C128.749 50.5472 128.752 50.798 128.644 50.952C128.587 51.0312 128.514 51.0708 128.441 51.0708ZM122.654 44.7788C122.603 44.7788 122.549 44.7568 122.501 44.7172C122.024 44.2904 121.545 43.8856 121.062 43.4896C120.925 43.3796 120.88 43.1376 120.96 42.9528C121.039 42.768 121.214 42.702 121.348 42.812C121.837 43.208 122.323 43.6216 122.806 44.0528C122.937 44.1716 122.975 44.4136 122.892 44.594C122.838 44.7084 122.746 44.7744 122.654 44.7744V44.7788ZM116.152 39.9828C116.113 39.9828 116.075 39.974 116.037 39.952C115.513 39.6352 114.992 39.3316 114.477 39.0412C114.331 38.962 114.261 38.7332 114.321 38.5308C114.378 38.3284 114.544 38.2316 114.69 38.3152C115.211 38.6056 115.738 38.9136 116.266 39.2348C116.409 39.3228 116.476 39.5516 116.412 39.754C116.364 39.8992 116.263 39.9872 116.152 39.9872V39.9828ZM109.217 36.4936C109.192 36.4936 109.163 36.4892 109.138 36.476C108.575 36.2472 108.029 36.036 107.504 35.8424C107.352 35.7852 107.263 35.574 107.304 35.3628C107.345 35.1516 107.501 35.0284 107.65 35.0856C108.181 35.2792 108.731 35.4948 109.3 35.7236C109.449 35.7852 109.535 36.0052 109.49 36.212C109.456 36.3836 109.341 36.4936 109.217 36.4936ZM102.019 34.2012C102.019 34.2012 101.987 34.2012 101.975 34.1968C100.916 33.9592 100.3 33.8712 100.293 33.8712C100.138 33.8492 100.023 33.6556 100.039 33.44C100.055 33.2244 100.195 33.066 100.351 33.088C100.376 33.088 100.989 33.1804 102.067 33.4224C102.222 33.4576 102.327 33.66 102.302 33.8712C102.28 34.0648 102.159 34.2012 102.022 34.2012H102.019Z" fill="#E6E6E6"/>
<path d="M120.563 148.227C120.407 148.227 120.28 148.056 120.28 147.84C120.28 147.624 120.404 147.444 120.559 147.444C121.128 147.435 121.694 147.404 122.241 147.352C122.396 147.33 122.533 147.497 122.542 147.717C122.552 147.932 122.434 148.122 122.279 148.135C121.723 148.188 121.144 148.218 120.566 148.227H120.563ZM127.799 146.643C127.681 146.643 127.57 146.542 127.532 146.379C127.481 146.172 127.561 145.952 127.707 145.882C128.241 145.627 128.762 145.341 129.254 145.024C129.397 144.932 129.566 145.024 129.629 145.218C129.696 145.416 129.629 145.649 129.49 145.737C128.978 146.062 128.438 146.362 127.888 146.621C127.856 146.634 127.827 146.643 127.796 146.643H127.799ZM133.971 141.28C133.901 141.28 133.828 141.244 133.774 141.17C133.659 141.02 133.656 140.769 133.764 140.615C134.145 140.065 134.508 139.476 134.848 138.864C134.943 138.692 135.121 138.657 135.245 138.789C135.369 138.921 135.394 139.168 135.299 139.339C134.946 139.977 134.568 140.589 134.174 141.156C134.117 141.236 134.044 141.275 133.971 141.275V141.28ZM137.698 132.572C137.667 132.572 137.638 132.563 137.606 132.55C137.457 132.48 137.377 132.255 137.428 132.053C137.606 131.336 137.765 130.583 137.908 129.822C137.946 129.611 138.099 129.483 138.251 129.54C138.404 129.593 138.496 129.809 138.455 130.02C138.312 130.799 138.146 131.569 137.962 132.308C137.921 132.471 137.813 132.572 137.695 132.572H137.698ZM138.928 122.536H138.922C138.766 122.536 138.642 122.351 138.642 122.135C138.642 121.928 138.645 121.739 138.645 121.554C138.645 120.476 138.604 119.825 138.604 119.821C138.591 119.605 138.706 119.416 138.861 119.394C139.017 119.385 139.154 119.535 139.17 119.75C139.17 119.777 139.214 120.437 139.214 121.554C139.214 121.739 139.214 121.937 139.211 122.148C139.211 122.364 139.081 122.536 138.928 122.536Z" fill="#E6E6E6"/>
<path d="M39.5842 157.291C38.9836 157.291 38.4147 157.26 37.8649 157.203C37.7092 157.186 37.5916 156.996 37.6043 156.781C37.617 156.565 37.7505 156.385 37.9094 156.42C38.4465 156.477 38.9995 156.508 39.5524 156.508C39.7082 156.508 39.8512 156.684 39.8512 156.9C39.8512 157.115 39.7399 157.291 39.5842 157.291ZM32.4019 155.43C32.367 155.43 32.3289 155.421 32.2939 155.399C31.7632 155.091 31.2388 154.744 30.7399 154.361C30.6032 154.255 30.5524 154.018 30.6286 153.828C30.7049 153.639 30.8765 153.569 31.0132 153.674C31.4962 154.044 32.0015 154.378 32.5132 154.678C32.6562 154.761 32.7261 154.99 32.6657 155.192C32.6212 155.342 32.5164 155.434 32.4051 155.434L32.4019 155.43ZM26.4845 149.521C26.4051 149.521 26.3288 149.477 26.2716 149.389C25.8966 148.804 25.5311 148.179 25.1847 147.536C25.0926 147.36 25.118 147.118 25.2451 146.986C25.3722 146.859 25.547 146.894 25.6424 147.066C25.9792 147.695 26.332 148.298 26.6975 148.865C26.8023 149.028 26.7896 149.274 26.6752 149.42C26.6212 149.486 26.5544 149.516 26.4877 149.516L26.4845 149.521ZM22.6519 140.853C22.5406 140.853 22.4358 140.76 22.3913 140.611C22.1752 139.894 21.9686 139.146 21.7779 138.384C21.7271 138.178 21.8033 137.958 21.9527 137.883C22.0989 137.808 22.261 137.918 22.315 138.125C22.5025 138.868 22.7059 139.603 22.9156 140.307C22.976 140.505 22.9061 140.738 22.7631 140.822C22.7281 140.844 22.69 140.853 22.655 140.853H22.6519ZM20.6656 131.028C20.529 131.028 20.4082 130.891 20.386 130.698C20.2207 129.232 20.1762 128.344 20.173 128.304C20.1635 128.088 20.2811 127.904 20.4368 127.886C20.5925 127.873 20.7292 128.036 20.7387 128.251C20.7387 128.26 20.7832 129.144 20.9453 130.57C20.9707 130.786 20.8627 130.984 20.7101 131.019C20.6942 131.019 20.6815 131.023 20.6656 131.023V131.028Z" fill="#E6E6E6"/>
<path d="M4.2068 121.07H39.0185L39.0185 71.9311H4.2068L4.2068 121.07Z" fill="#24285B"/>
<path opacity="0.23" d="M24.8733 79.5387H9.46002V96.5095H24.8733V79.5387Z" fill="white"/>
<path d="M34.5534 82.2052H27.4125V84.5108H34.5534V82.2052Z" fill="white"/>
<path opacity="0.23" d="M34.5534 87.1771H27.4125V89.4827H34.5534V87.1771Z" fill="white"/>
<path opacity="0.23" d="M34.5534 91.7532H27.4125V94.0588H34.5534V91.7532Z" fill="white"/>
<path opacity="0.23" d="M34.5534 100.866H8.98332V113.489H34.5534V100.866Z" fill="white"/>
<path opacity="0.73" d="M9.46002 96.5095L14.0141 87.1771L17.6942 94.3491L21.0216 88.6027L24.8733 96.5095H9.46002Z" fill="white"/>
<path d="M17.6592 86.8736C18.4262 86.8736 19.048 86.0127 19.048 84.9508C19.048 83.8888 18.4262 83.028 17.6592 83.028C16.8922 83.028 16.2705 83.8888 16.2705 84.9508C16.2705 86.0127 16.8922 86.8736 17.6592 86.8736Z" fill="white"/>
</svg>
