<svg width="336" height="91" viewBox="0 0 336 91" fill="none" xmlns="http://www.w3.org/2000/svg">
<path d="M33.9672 71.192C27.6952 71.192 22.0312 69.912 16.9752 67.352C11.9832 64.728 8.04716 60.856 5.16716 55.736C2.28716 50.616 0.847155 44.312 0.847155 36.824C0.847155 29.336 2.28716 22.872 5.16716 17.432C8.11116 11.992 12.1112 7.832 17.1672 4.952C22.2872 2.008 28.1112 0.535997 34.6392 0.535997C42.1912 0.535997 47.9832 1.592 52.0152 3.704C56.0472 5.816 58.0632 8.952 58.0632 13.112C58.0632 16.312 57.1992 18.968 55.4712 21.08C53.7432 23.128 51.3752 24.152 48.3672 24.152C45.8072 24.152 43.3112 23.832 40.8792 23.192C38.5112 22.488 35.7272 22.136 32.5272 22.136C28.4312 22.136 25.1992 23.32 22.8312 25.688C20.4632 28.056 19.2792 31.16 19.2792 35C19.2792 38.776 20.4632 41.944 22.8312 44.504C25.1992 47 28.4312 48.248 32.5272 48.248C34.7032 48.248 36.6872 48.088 38.4792 47.768C40.3352 47.384 42.1272 47 43.8552 46.616C45.6472 46.232 47.5672 46.04 49.6152 46.04C53.0072 46.04 55.5032 47.16 57.1032 49.4C58.7032 51.576 59.5032 54.296 59.5032 57.56C59.5032 60.824 58.3192 63.48 55.9512 65.528C53.5832 67.512 50.4472 68.952 46.5432 69.848C42.7032 70.744 38.5112 71.192 33.9672 71.192ZM77.8684 90.776C73.5804 90.776 70.0604 90.072 67.3084 88.664C64.6204 87.256 62.5084 85.4 60.9724 83.096C59.6924 81.112 58.9564 79.032 58.7644 76.856C58.6364 74.68 59.0524 72.664 60.0124 70.808C60.9724 68.888 62.4124 67.416 64.3324 66.392C66.3164 65.304 68.3004 64.888 70.2844 65.144C72.2684 65.336 74.0924 66.072 75.7564 67.352C77.4204 68.568 78.7004 70.168 79.5964 72.152C80.5564 74.264 81.5164 75.8 82.4764 76.76C83.5004 77.784 84.8124 78.008 86.4124 77.432C87.9484 76.92 88.4924 75.512 88.0444 73.208C87.6604 70.904 86.8284 68.184 85.5484 65.048H81.9964C79.2444 65.048 76.4924 64.056 73.7404 62.072C70.9884 60.088 68.6844 56.952 66.8284 52.664L58.9564 34.424C57.7404 31.544 57.6124 28.888 58.5724 26.456C59.5964 24.024 61.4204 22.264 64.0444 21.176C66.4764 20.088 68.8764 20.024 71.2444 20.984C73.6124 21.944 75.4684 23.992 76.8124 27.128L84.1084 44.12C85.3244 46.872 86.6364 48.856 88.0444 50.072C89.5164 51.288 91.0524 51.48 92.6524 50.648C94.0604 49.88 94.8284 48.824 94.9564 47.48C95.0844 46.072 94.4124 44.376 92.9404 42.392C92.3004 41.496 91.5324 40.504 90.6364 39.416C89.8044 38.328 89.0364 37.08 88.3324 35.672C87.6924 34.2 87.3724 32.568 87.3724 30.776C87.3724 27.768 88.3964 25.304 90.4444 23.384C92.4924 21.4 95.1804 20.408 98.5084 20.408C101.516 20.408 103.916 21.368 105.708 23.288C107.564 25.208 108.492 27.704 108.492 30.776C108.492 32.952 108.236 35.352 107.724 37.976C107.212 40.6 106.636 43.032 105.996 45.272L99.0844 70.52C98.0604 74.296 96.7164 77.72 95.0524 80.792C93.3884 83.864 91.1804 86.296 88.4284 88.088C85.6764 89.88 82.1564 90.776 77.8684 90.776Z" fill="black"/>
<path d="M122.673 71C119.345 71 116.881 70.008 115.281 68.024C113.681 66.04 112.881 63.384 112.881 60.056V15.32C112.881 10.456 114.193 6.872 116.817 4.568C119.505 2.264 122.705 1.112 126.417 1.112C129.937 1.112 132.913 2.264 135.345 4.568C137.841 6.872 139.665 10.52 140.817 15.512L148.305 48.056H150.801L158.289 15.512C159.441 10.52 161.265 6.872 163.761 4.568C166.321 2.264 169.361 1.112 172.881 1.112C176.593 1.112 179.761 2.264 182.385 4.568C185.073 6.872 186.417 10.456 186.417 15.32V60.056C186.417 63.384 185.585 66.04 183.921 68.024C182.321 70.008 179.857 71 176.529 71C173.329 71 170.865 70.008 169.137 68.024C167.409 66.04 166.545 63.384 166.545 60.056V34.232C166.545 33.592 166.449 33.016 166.257 32.504C166.129 31.928 165.713 31.64 165.009 31.64C164.433 31.64 164.017 31.928 163.761 32.504C163.505 33.016 163.313 33.592 163.185 34.232L159.537 58.424C159.089 61.048 158.545 63.32 157.905 65.24C157.329 67.096 156.401 68.536 155.121 69.56C153.841 70.52 151.985 71 149.553 71C147.185 71 145.329 70.52 143.985 69.56C142.705 68.536 141.745 67.096 141.105 65.24C140.529 63.32 140.049 61.048 139.665 58.424L135.921 34.232C135.857 33.592 135.697 33.016 135.441 32.504C135.185 31.928 134.737 31.64 134.097 31.64C133.457 31.64 133.041 31.928 132.849 32.504C132.657 33.016 132.561 33.592 132.561 34.232V60.056C132.561 63.384 131.697 66.04 129.969 68.024C128.305 70.008 125.873 71 122.673 71ZM206.296 71C201.56 71 197.848 69.72 195.16 67.16C192.536 64.6 191.224 61.016 191.224 56.408C191.224 51.8 192.76 48.472 195.832 46.424C198.904 44.312 202.84 43.256 207.64 43.256C210.456 43.256 213.016 43.448 215.32 43.832C217.624 44.216 219.704 44.76 221.56 45.464H221.848V44.024C221.848 42.552 221.304 41.4 220.216 40.568C219.128 39.672 217.752 39.256 216.088 39.32C214.488 39.32 213.112 39.416 211.96 39.608C210.872 39.8 209.496 40.12 207.832 40.568C204.76 41.336 202.104 41.272 199.864 40.376C197.624 39.48 196.088 37.72 195.256 35.096C194.488 32.344 194.648 30.04 195.736 28.184C196.888 26.328 198.616 24.888 200.92 23.864C202.904 22.904 205.112 22.104 207.544 21.464C210.04 20.824 212.728 20.504 215.608 20.504C223.992 20.504 230.136 22.552 234.04 26.648C238.008 30.68 239.992 37.464 239.992 47V61.88C239.992 64.504 239.192 66.68 237.592 68.408C235.992 70.136 233.784 71 230.968 71C227.896 71 225.592 70.136 224.056 68.408C222.584 66.68 221.848 64.568 221.848 62.072V59.864H219.928C219.928 61.528 219.608 63.224 218.968 64.952C218.392 66.68 217.144 68.12 215.224 69.272C213.368 70.424 210.392 71 206.296 71ZM207.256 49.976C207.256 51.064 207.64 51.832 208.408 52.28C209.24 52.728 211 52.952 213.688 52.952C216.12 52.952 217.816 52.728 218.776 52.28C219.736 51.832 220.216 51.064 220.216 49.976C220.216 48.952 219.736 48.248 218.776 47.864C217.816 47.416 216.12 47.192 213.688 47.192C211 47.192 209.24 47.416 208.408 47.864C207.64 48.248 207.256 48.952 207.256 49.976ZM269.616 71.288C266.224 71.288 263.152 70.52 260.4 68.984C257.712 67.448 255.6 65.272 254.064 62.456C252.528 59.576 251.76 56.216 251.76 52.376V35.48L248.208 35.96C246.288 36.216 244.592 35.544 243.12 33.944C241.648 32.344 240.912 30.328 240.912 27.896C240.912 25.464 241.648 23.48 243.12 21.944C244.592 20.344 246.288 19.672 248.208 19.928L251.76 20.408L251.664 13.88C251.6 11.32 252.336 9.304 253.872 7.832C255.408 6.296 257.648 5.528 260.592 5.528C263.536 5.528 265.808 6.296 267.408 7.832C269.008 9.304 269.744 11.32 269.616 13.88L269.424 20.408L274.512 19.736C277.968 19.224 280.592 19.864 282.384 21.656C284.176 23.384 285.072 25.464 285.072 27.896C285.072 30.328 284.176 32.44 282.384 34.232C280.656 35.96 278.128 36.6 274.8 36.152L269.424 35.48V49.784C269.424 50.616 269.712 51.384 270.288 52.088C270.864 52.728 271.568 52.92 272.4 52.664C273.36 52.408 274.352 51.864 275.376 51.032C276.464 50.2 277.84 49.784 279.504 49.784C282 49.784 283.92 50.68 285.264 52.472C286.608 54.264 287.28 56.472 287.28 59.096C287.28 61.144 286.544 63.128 285.072 65.048C283.664 66.904 281.648 68.408 279.024 69.56C276.4 70.712 273.264 71.288 269.616 71.288ZM289.017 46.04C289.017 40.984 290.009 36.536 291.993 32.696C294.041 28.856 296.921 25.848 300.633 23.672C304.409 21.496 308.889 20.408 314.073 20.408C318.105 20.408 321.721 21.144 324.921 22.616C328.185 24.088 330.745 26.072 332.601 28.568C334.457 31 335.385 33.688 335.385 36.632C335.385 39.704 334.489 41.88 332.697 43.16C330.905 44.44 328.249 45.08 324.729 45.08H304.569C304.569 46.744 305.209 48.12 306.489 49.208C307.833 50.296 310.073 50.84 313.209 50.84C314.809 50.84 316.281 50.68 317.625 50.36C319.033 50.04 320.441 49.752 321.849 49.496C323.321 49.176 324.953 49.016 326.745 49.016C329.305 49.016 331.417 49.944 333.081 51.8C334.745 53.592 335.577 56.088 335.577 59.288C335.577 63.064 333.625 66.008 329.721 68.12C325.881 70.232 320.825 71.288 314.553 71.288C310.137 71.288 305.977 70.424 302.073 68.696C298.233 66.968 295.097 64.248 292.665 60.536C290.233 56.76 289.017 51.928 289.017 46.04ZM320.121 41.912C321.081 41.912 321.401 41.464 321.081 40.568C320.825 39.672 320.057 38.744 318.777 37.784C317.497 36.824 315.641 36.344 313.209 36.344C310.393 36.344 308.281 36.952 306.873 38.168C305.529 39.384 304.857 40.632 304.857 41.912H320.121Z" fill="white"/>
</svg>
