<svg width="71" height="62" viewBox="0 0 71 62" fill="none" xmlns="http://www.w3.org/2000/svg">
<path fill-rule="evenodd" clip-rule="evenodd" d="M45.525 40.5856C42.9104 40.5856 40.7133 38.363 40.7133 35.6224C40.7133 32.8819 42.9104 30.5859 45.525 30.5859C48.1396 30.5859 50.26 32.8819 50.26 35.6224C50.26 38.363 48.1396 40.5856 45.525 40.5856ZM46.6354 50.2188C44.2001 52.7691 40.4444 54.0088 35.154 54.0088C35.143 54.0088 35.1299 54.0064 35.1168 54.0064C35.1059 54.0064 35.0928 54.0088 35.0797 54.0088C29.7893 54.0088 26.0357 52.7691 23.6026 50.2188C22.8549 49.4351 22.8549 48.168 23.6026 47.3866C24.348 46.6052 25.557 46.6052 26.3046 47.3866C27.9836 49.1464 30.8539 50.0034 35.0797 50.0034C35.0928 50.0034 35.1059 50.0056 35.1168 50.0056C35.1299 50.0056 35.143 50.0034 35.154 50.0034C39.3797 50.0034 42.2523 49.1464 43.9334 47.3866C44.6811 46.6029 45.89 46.6052 46.6354 47.3866C47.3809 48.1702 47.3809 49.4374 46.6354 50.2188ZM19.978 35.6224C19.978 32.8842 22.1707 30.5859 24.7831 30.5859C27.3977 30.5859 29.5181 32.8842 29.5181 35.6224C29.5181 38.363 27.3977 40.5856 24.7831 40.5856C22.1707 40.5856 19.978 38.363 19.978 35.6224ZM58.4317 4.00538C60.2025 4.00538 61.6432 5.51545 61.6432 7.36921C61.6432 9.22526 60.2025 10.7353 58.4317 10.7353C56.661 10.7353 55.2203 9.22526 55.2203 7.36921C55.2203 5.51545 56.661 4.00538 58.4317 4.00538ZM70.0969 30.1711C70.0969 25.311 66.3259 21.3584 61.6891 21.3584C59.6823 21.3584 57.8393 22.1007 56.3921 23.3358C51.2657 19.9582 44.7598 17.9235 37.7861 17.4927L41.4238 5.43752L51.4209 7.90537C51.6832 11.7206 54.7263 14.7407 58.4317 14.7407C62.3077 14.7407 65.4623 11.4342 65.4623 7.36921C65.4623 3.30653 62.3077 0 58.4317 0C55.721 0 53.3644 1.61771 52.1904 3.98016L40.5734 1.11362C39.6005 0.873026 38.6168 1.45967 38.3151 2.45873L33.7986 17.4217C26.2849 17.6141 19.2216 19.6558 13.7191 23.2304C12.2916 22.0595 10.4967 21.3584 8.5489 21.3584C3.91214 21.3584 0.141113 25.311 0.141113 30.1711C0.141113 33.1751 1.58395 35.8309 3.781 37.4212C3.68918 38.1201 3.64107 38.8235 3.64107 39.5362C3.64107 45.6107 7.00986 51.2613 13.1266 55.4454C18.9898 59.4577 26.7506 61.6667 34.977 61.6667C43.2033 61.6667 50.964 59.4577 56.8272 55.4454C62.944 51.2613 66.3127 45.6107 66.3127 39.5362C66.3127 38.8877 66.2712 38.2438 66.1947 37.6045C68.5382 36.0394 70.0969 33.292 70.0969 30.1711Z" fill="#FF5700"/>
</svg>
