<svg width="197" height="176" viewBox="0 0 197 176" fill="none" xmlns="http://www.w3.org/2000/svg">
<path d="M98.5 0C44.1699 0 0 39.4614 0 88C0 136.539 44.1699 176 98.5 176C152.83 176 197 136.539 197 88C197 39.4614 152.83 0 98.5 0ZM98.5 166.23C50.2195 166.23 10.9358 131.134 10.9358 88C10.9358 44.8661 50.2195 9.77008 98.5 9.77008C146.781 9.77008 186.064 44.8661 186.064 88C186.064 131.134 146.781 166.23 98.5 166.23Z" fill="#9747FF"/>
<path d="M127.662 75.5277L91.4421 49.9592C88.2622 47.7072 84.4618 46.4946 80.4675 46.4946C70.6175 46.4946 62.6289 53.6316 62.6289 62.4316V113.603C62.6289 122.369 70.6563 129.54 80.4675 129.54C84.4618 129.54 88.2622 128.362 91.4421 126.11L127.662 100.542C131.967 97.4931 134.41 92.9545 134.41 88.0694C134.41 83.1151 131.967 78.5765 127.662 75.5277ZM120.876 92.8159L84.6557 118.384C83.4148 119.285 81.9799 119.736 80.4675 119.736C77.0549 119.736 73.5648 117.449 73.5648 113.603V107.575H82.0963C85.1211 107.575 87.5642 105.392 87.5642 102.69C87.5642 99.9875 85.1211 97.8049 82.0963 97.8049H73.5648V88.0001H98.5C101.525 88.0001 103.968 85.8175 103.968 83.1151C103.968 80.4127 101.525 78.2301 98.5 78.2301H73.526V62.4316C73.526 58.586 77.0549 56.2994 80.4287 56.2994C81.9411 56.2994 83.376 56.7497 84.6169 57.6505L120.837 83.219C122.505 84.397 123.435 86.1293 123.435 88.0348C123.474 89.871 122.505 91.6379 120.876 92.8159Z" fill="#9747FF"/>
</svg>
